<?xml version="1.0" standalone="no"?><!DOCTYPE svg PUBLIC "-//W3C//DTD SVG 1.1//EN" "http://www.w3.org/Graphics/SVG/1.1/DTD/svg11.dtd"><svg t="1552895644652" class="icon" style="" viewBox="0 0 1024 1024" version="1.1" xmlns="http://www.w3.org/2000/svg" p-id="6727" xmlns:xlink="http://www.w3.org/1999/xlink" width="200" height="200"><defs><style type="text/css"></style></defs><path d="M409.6 204.8m25.6 0l460.8 0q25.6 0 25.6 25.6l0 0q0 25.6-25.6 25.6l-460.8 0q-25.6 0-25.6-25.6l0 0q0-25.6 25.6-25.6Z" fill="#000000" p-id="6728"></path><path d="M409.6 614.4m25.6 0l460.8 0q25.6 0 25.6 25.6l0 0q0 25.6-25.6 25.6l-460.8 0q-25.6 0-25.6-25.6l0 0q0-25.6 25.6-25.6Z" fill="#000000" p-id="6729"></path><path d="M102.4 819.2m25.6 0l768 0q25.6 0 25.6 25.6l0 0q0 25.6-25.6 25.6l-768 0q-25.6 0-25.6-25.6l0 0q0-25.6 25.6-25.6Z" fill="#000000" p-id="6730"></path><path d="M204.8 409.6m25.6 0l665.6 0q25.6 0 25.6 25.6l0 0q0 25.6-25.6 25.6l-665.6 0q-25.6 0-25.6-25.6l0 0q0-25.6 25.6-25.6Z" fill="#000000" p-id="6731"></path></svg>