<?xml version="1.0" standalone="no"?><!DOCTYPE svg PUBLIC "-//W3C//DTD SVG 1.1//EN" "http://www.w3.org/Graphics/SVG/1.1/DTD/svg11.dtd"><svg class="icon" width="128px" height="128.00px" viewBox="0 0 1024 1024" version="1.1" xmlns="http://www.w3.org/2000/svg"><path fill="#515151" d="M1023.934464 768.016384l0 73.138176q0 14.856192-10.856448 25.71264t-25.71264 10.856448l-950.796288 0q-14.856192 0-25.71264-10.856448t-10.856448-25.71264l0-73.138176q0-14.856192 10.856448-25.71264t25.71264-10.856448l950.796288 0q14.856192 0 25.71264 10.856448t10.856448 25.71264zm-219.414528-219.414528l0 73.138176q0 14.856192-10.856448 25.71264t-25.71264 10.856448l-731.38176 0q-14.856192 0-25.71264-10.856448t-10.856448-25.71264l0-73.138176q0-14.856192 10.856448-25.71264t25.71264-10.856448l731.38176 0q14.856192 0 25.71264 10.856448t10.856448 25.71264zm146.276352-219.414528l0 73.138176q0 14.856192-10.856448 25.71264t-25.71264 10.856448l-877.658112 0q-14.856192 0-25.71264-10.856448t-10.856448-25.71264l0-73.138176q0-14.856192 10.856448-25.71264t25.71264-10.856448l877.658112 0q14.856192 0 25.71264 10.856448t10.856448 25.71264zm-219.414528-219.414528l0 73.138176q0 14.856192-10.856448 25.71264t-25.71264 10.856448l-658.243584 0q-14.856192 0-25.71264-10.856448t-10.856448-25.71264l0-73.138176q0-14.856192 10.856448-25.71264t25.71264-10.856448l658.243584 0q14.856192 0 25.71264 10.856448t10.856448 25.71264z" /></svg>