<?xml version="1.0" standalone="no"?><!DOCTYPE svg PUBLIC "-//W3C//DTD SVG 1.1//EN" "http://www.w3.org/Graphics/SVG/1.1/DTD/svg11.dtd"><svg class="icon" width="128px" height="128.00px" viewBox="0 0 1024 1024" version="1.1" xmlns="http://www.w3.org/2000/svg"><path d="M1024 768l0 73.142857q0 14.857143-10.857143 25.714286t-25.714286 10.857143l-950.857143 0q-14.857143 0-25.714286-10.857143t-10.857143-25.714286l0-73.142857q0-14.857143 10.857143-25.714286t25.714286-10.857143l950.857143 0q14.857143 0 25.714286 10.857143t10.857143 25.714286zm0-219.428571l0 73.142857q0 14.857143-10.857143 25.714286t-25.714286 10.857143l-731.428571 0q-14.857143 0-25.714286-10.857143t-10.857143-25.714286l0-73.142857q0-14.857143 10.857143-25.714286t25.714286-10.857143l731.428571 0q14.857143 0 25.714286 10.857143t10.857143 25.714286zm0-219.428571l0 73.142857q0 14.857143-10.857143 25.714286t-25.714286 10.857143l-877.714286 0q-14.857143 0-25.714286-10.857143t-10.857143-25.714286l0-73.142857q0-14.857143 10.857143-25.714286t25.714286-10.857143l877.714286 0q14.857143 0 25.714286 10.857143t10.857143 25.714286zm0-219.428571l0 73.142857q0 14.857143-10.857143 25.714286t-25.714286 10.857143l-658.285714 0q-14.857143 0-25.714286-10.857143t-10.857143-25.714286l0-73.142857q0-14.857143 10.857143-25.714286t25.714286-10.857143l658.285714 0q14.857143 0 25.714286 10.857143t10.857143 25.714286z" /></svg>