<?xml version="1.0" standalone="no"?><!DOCTYPE svg PUBLIC "-//W3C//DTD SVG 1.1//EN" "http://www.w3.org/Graphics/SVG/1.1/DTD/svg11.dtd"><svg class="icon" width="128px" height="120.47px" viewBox="0 0 1088 1024" version="1.1" xmlns="http://www.w3.org/2000/svg"><path d="M1088 124.032C1088 157.184 1061.12 184.064 1027.968 184.064L126.72 184.064C93.568 184.064 66.688 157.184 66.688 124.032L66.688 124.032C66.688 90.88 93.568 64 126.72 64L1027.968 64C1061.12 64 1088 90.88 1088 124.032L1088 124.032 1088 124.032ZM1088 892.032C1088 925.184 1061.12 952.064 1027.968 952.064L126.72 952.064C93.568 952.064 66.688 925.184 66.688 892.032L66.688 892.032C66.688 858.88 93.568 832 126.72 832L1027.968 832C1061.12 832 1088 858.88 1088 892.032L1088 892.032 1088 892.032ZM1088 508.032C1088 541.184 1061.12 568.064 1027.968 568.064L126.72 568.064C93.568 568.064 66.688 541.184 66.688 508.032L66.688 508.032C66.688 474.88 93.568 448 126.72 448L1027.968 448C1061.12 448 1088 474.88 1088 508.032L1088 508.032 1088 508.032ZM896 700.032C896 733.184 869.12 760.064 835.968 760.064L318.72 760.064C285.568 760.064 258.688 733.184 258.688 700.032L258.688 700.032C258.688 666.88 285.568 640 318.72 640L835.968 640C869.12 640 896 666.88 896 700.032L896 700.032 896 700.032ZM896 316.032C896 349.184 869.12 376.064 835.968 376.064L318.72 376.064C285.568 376.064 258.688 349.184 258.688 316.032L258.688 316.032C258.688 282.88 285.568 256 318.72 256L835.968 256C869.12 256 896 282.88 896 316.032L896 316.032 896 316.032Z" /></svg>