<?xml version="1.0" standalone="no"?><!DOCTYPE svg PUBLIC "-//W3C//DTD SVG 1.1//EN" "http://www.w3.org/Graphics/SVG/1.1/DTD/svg11.dtd"><svg t="1538745886919" class="icon" style="" viewBox="0 0 1024 1024" version="1.1" xmlns="http://www.w3.org/2000/svg" p-id="31377" xmlns:xlink="http://www.w3.org/1999/xlink" width="200" height="200"><defs><style type="text/css"></style></defs><path d="M157.538462 265.846154c0 15.753846-13.784615 29.538462-29.538462 29.538461h-59.076923c-15.753846 0-29.538462-13.784615-29.538462-29.538461v-59.076923C39.384615 191.015385 53.169231 177.230769 68.923077 177.230769h59.076923c15.753846 0 29.538462 13.784615 29.538462 29.538462v59.076923z m827.076923-59.076923c0-15.753846-13.784615-29.538462-29.538462-29.538462h-689.230769c-15.753846 0-29.538462 13.784615-29.538462 29.538462v59.076923c0 15.753846 13.784615 29.538462 29.538462 29.538461h689.230769c15.753846 0 29.538462-13.784615 29.538462-29.538461v-59.076923z m-827.076923 275.692307c0-15.753846-13.784615-29.538462-29.538462-29.538461h-59.076923c-15.753846 0-29.538462 13.784615-29.538462 29.538461v59.076924c0 15.753846 13.784615 29.538462 29.538462 29.538461h59.076923c15.753846 0 29.538462-13.784615 29.538462-29.538461v-59.076924z m748.307692 0c0-15.753846-13.784615-29.538462-29.538462-29.538461h-610.461538c-15.753846 0-29.538462 13.784615-29.538462 29.538461v59.076924c0 15.753846 13.784615 29.538462 29.538462 29.538461h610.461538c15.753846 0 29.538462-13.784615 29.538462-29.538461v-59.076924z m-748.307692 275.692308c0-15.753846-13.784615-29.538462-29.538462-29.538461h-59.076923c-15.753846 0-29.538462 13.784615-29.538462 29.538461v59.076923c0 15.753846 13.784615 29.538462 29.538462 29.538462h59.076923c15.753846 0 29.538462-13.784615 29.538462-29.538462v-59.076923z m827.076923 0c0-15.753846-13.784615-29.538462-29.538462-29.538461h-689.230769c-15.753846 0-29.538462 13.784615-29.538462 29.538461v59.076923c0 15.753846 13.784615 29.538462 29.538462 29.538462h689.230769c15.753846 0 29.538462-13.784615 29.538462-29.538462v-59.076923z" p-id="31378"></path></svg>