<?xml version="1.0" standalone="no"?><!DOCTYPE svg PUBLIC "-//W3C//DTD SVG 1.1//EN" "http://www.w3.org/Graphics/SVG/1.1/DTD/svg11.dtd"><svg t="1540911659576" class="icon" style="" viewBox="0 0 1024 1024" version="1.1" xmlns="http://www.w3.org/2000/svg" p-id="2485" xmlns:xlink="http://www.w3.org/1999/xlink" width="200" height="200"><defs><style type="text/css"></style></defs><path d="M597.333 85.333c-47.128 0-85.333 38.205-85.333 85.334 0 7.805 0.704 15.483 2.667 22.666L424 266.667C412.03 260.269 398.521 256 384 256c-28.074 0-52.448 13.742-68 34.667l-62.667-13.334c-9.47-36.808-42.902-64-82.666-64-47.129 0-85.334 38.205-85.334 85.334 0 47.128 38.205 85.333 85.334 85.333 30.093 0 56.807-15.136 72-38.667l57.333 12c7.457 39.52 42.312 69.334 84 69.334 47.128 0 85.333-38.205 85.333-85.334 0-7.805-0.703-15.483-2.666-22.666l90.666-72c11.837 6.213 25.704 9.333 40 9.333 13.884 0 27.081-3.451 38.667-9.333L772 360c-2.259 7.663-4 15.605-4 24 0 47.128 38.205 85.333 85.333 85.333 47.129 0 85.334-38.205 85.334-85.333s-38.205-85.333-85.334-85.333c-13.883 0-27.08 3.45-38.666 9.333l-136-113.333c2.259-7.663 4-15.606 4-24 0-47.129-38.205-85.334-85.334-85.334zM512 512v426.667h170.667V512H512z m213.333 128v298.667H896V640H725.333z m-640 42.667v256H256v-256H85.333z m213.334 42.666v213.334h170.666V725.333H298.667z" p-id="2486"></path></svg>