<?xml version="1.0" standalone="no"?><!DOCTYPE svg PUBLIC "-//W3C//DTD SVG 1.1//EN" "http://www.w3.org/Graphics/SVG/1.1/DTD/svg11.dtd"><svg t="1552895441530" class="icon" style="" viewBox="0 0 1024 1024" version="1.1" xmlns="http://www.w3.org/2000/svg" p-id="3984" xmlns:xlink="http://www.w3.org/1999/xlink" width="200" height="200"><defs><style type="text/css"></style></defs><path d="M153.6 563.2h51.2v256H153.6zM358.4 665.6h51.2v153.6H358.4zM563.2 409.6h51.2v409.6h-51.2zM768 460.8h51.2v358.4h-51.2z" fill="#000000" p-id="3985"></path><path d="M216.064 342.016l25.4464-44.4416 96.6656 55.296-25.4464 44.4416-96.6144-55.296z m219.648 62.3104l-37.2736-35.072 166.8608-177.5104 37.2736 35.072-166.8096 177.5104z m194.7136-175.2576l28.3136-42.6496 90.5216 60.0576-28.3136 42.7008-90.5216-60.1088z" fill="#000000" p-id="3986"></path><path d="M204.8 384a76.8 76.8 0 1 1 0-153.6 76.8 76.8 0 0 1 0 153.6z m0-51.2a25.6 25.6 0 1 0 0-51.2 25.6 25.6 0 0 0 0 51.2zM358.4 486.4a76.8 76.8 0 1 1 0-153.6 76.8 76.8 0 0 1 0 153.6z m0-51.2a25.6 25.6 0 1 0 0-51.2 25.6 25.6 0 0 0 0 51.2zM614.4 230.4a76.8 76.8 0 1 1 0-153.6 76.8 76.8 0 0 1 0 153.6z m0-51.2a25.6 25.6 0 1 0 0-51.2 25.6 25.6 0 0 0 0 51.2zM768 384a76.8 76.8 0 1 1 0-153.6 76.8 76.8 0 0 1 0 153.6z m0-51.2a25.6 25.6 0 1 0 0-51.2 25.6 25.6 0 0 0 0 51.2z" fill="#000000" p-id="3987"></path></svg>