<svg xmlns="http://www.w3.org/2000/svg" width="20" height="20" viewBox="0 0 20 20">
    <g fill="none" fill-rule="evenodd">
        <path d="M0 0h20v20H0z"/>
        <path fill="#000" d="M4.159 4.249h.897v.819h-.728c-.572 0-.858.312-.858.962v2.704c0 .78-.364 1.313-1.066 1.586.702.286 1.066.819 1.066 1.586v2.717c0 .624.286.949.858.949h.728v.819h-.897c-.533 0-.949-.169-1.235-.507-.286-.312-.416-.741-.416-1.287v-2.652c0-.39-.091-.676-.247-.858-.182-.208-.52-.325-.988-.338v-.858c.468-.026.806-.13.988-.338.156-.182.247-.468.247-.858V6.056c0-.546.13-.988.416-1.3.286-.338.702-.507 1.235-.507zM14.26 4.249h.897c.52 0 .936.169 1.235.507.273.312.416.754.416 1.3v2.639c0 .39.078.676.247.871.182.195.507.299.988.325v.858c-.481.013-.806.13-.988.338-.169.182-.247.468-.247.858v2.652c0 .546-.143.975-.416 1.287-.299.338-.715.507-1.235.507h-.897v-.819h.728c.572 0 .858-.325.858-.949v-2.717c0-.767.351-1.3 1.066-1.586-.715-.273-1.066-.806-1.066-1.586V6.03c0-.65-.286-.962-.858-.962h-.728v-.819z"/>
        <circle cx="7" cy="10" r="1" fill="#000"/>
        <circle cx="10" cy="10" r="1" fill="#000"/>
        <circle cx="13" cy="10" r="1" fill="#000"/>
    </g>
</svg>
