<?xml version="1.0" standalone="no"?><!DOCTYPE svg PUBLIC "-//W3C//DTD SVG 1.1//EN" "http://www.w3.org/Graphics/SVG/1.1/DTD/svg11.dtd"><svg t="1552896744699" class="icon" style="" viewBox="0 0 1024 1024" version="1.1" xmlns="http://www.w3.org/2000/svg" p-id="3439" xmlns:xlink="http://www.w3.org/1999/xlink" width="200" height="200"><defs><style type="text/css"></style></defs><path d="M212.9408 217.5488h45.9264v41.9328h-37.2736c-29.2864 0-43.9296 15.9744-43.9296 49.2544v138.4448c0 39.936-18.6368 67.2256-54.5792 81.2032 35.9424 14.6432 54.5792 41.9328 54.5792 81.2032v139.1104c0 31.9488 14.6432 48.5888 43.9296 48.5888h37.2736v41.9328h-45.9264c-27.2896 0-48.5888-8.6528-63.232-25.9584-14.6432-15.9744-21.2992-37.9392-21.2992-65.8944v-135.7824c0-19.968-4.6592-34.6112-12.6464-43.9296-9.3184-10.6496-26.624-16.64-50.5856-17.3056v-43.9296c23.9616-1.3312 41.2672-6.656 50.5856-17.3056 7.9872-9.3184 12.6464-23.9616 12.6464-43.9296V310.0672c0-27.9552 6.656-50.5856 21.2992-66.56 14.6432-17.3056 35.9424-25.9584 63.232-25.9584zM730.112 217.5488h45.9264c26.624 0 47.9232 8.6528 63.232 25.9584 13.9776 15.9744 21.2992 38.6048 21.2992 66.56v135.1168c0 19.968 3.9936 34.6112 12.6464 44.5952 9.3184 9.984 25.9584 15.3088 50.5856 16.64v43.9296c-24.6272 0.6656-41.2672 6.656-50.5856 17.3056-8.6528 9.3184-12.6464 23.9616-12.6464 43.9296v135.7824c0 27.9552-7.3216 49.92-21.2992 65.8944-15.3088 17.3056-36.608 25.9584-63.232 25.9584h-45.9264v-41.9328h37.2736c29.2864 0 43.9296-16.64 43.9296-48.5888v-139.1104c0-39.2704 17.9712-66.56 54.5792-81.2032-36.608-13.9776-54.5792-41.2672-54.5792-81.2032V308.736c0-33.28-14.6432-49.2544-43.9296-49.2544h-37.2736v-41.9328z" fill="#000000" p-id="3440"></path><path d="M358.4 512m-51.2 0a51.2 51.2 0 1 0 102.4 0 51.2 51.2 0 1 0-102.4 0Z" fill="#000000" p-id="3441"></path><path d="M512 512m-51.2 0a51.2 51.2 0 1 0 102.4 0 51.2 51.2 0 1 0-102.4 0Z" fill="#000000" p-id="3442"></path><path d="M665.6 512m-51.2 0a51.2 51.2 0 1 0 102.4 0 51.2 51.2 0 1 0-102.4 0Z" fill="#000000" p-id="3443"></path></svg>