<?xml version="1.0" standalone="no"?><!DOCTYPE svg PUBLIC "-//W3C//DTD SVG 1.1//EN" "http://www.w3.org/Graphics/SVG/1.1/DTD/svg11.dtd"><svg t="1538745067954" class="icon" style="" viewBox="0 0 1027 1024" version="1.1" xmlns="http://www.w3.org/2000/svg" p-id="9844" xmlns:xlink="http://www.w3.org/1999/xlink" width="200.5859375" height="200"><defs><style type="text/css"></style></defs><path d="M372.352 1022.8736h-35.0208c-90.8384 0-151.6672-13.4848-182.496-40.4544-30.8256-26.9696-46.24-80.7296-46.24-161.2768v-109.3408c0-39.7248-11.216-73.984-33.6512-102.7776-22.4352-28.7936-25.184-43.1904-72.2432-43.1904v-78.176c51.4368 0 55.28-12.2112 75.5264-36.6304 20.2464-24.4192 30.368-60.32 30.368-107.6992V201.184c0-80.544 15.4144-134.2144 46.24-161.0016C185.664 13.3952 246.496 0 337.3312 0h35.0208v78.176h-38.304c-51.072 0-84.3616 7.9296-99.8656 23.7824-15.504 15.856-23.2576 49.6608-23.2576 101.4144v146.5152c0 64.1472-12.5856 107.2448-37.76 129.2928-25.168 22.0512-42.2336 37.9968-115.1968 47.84 70.7744 8.3808 87.2928 24.5088 113.5584 48.3808 26.2656 23.872 39.3984 66.9696 39.3984 129.2928v114.2624c0 52.1184 7.7536 86.016 23.2576 101.6864 15.504 15.6704 48.7936 23.5072 99.8656 23.5072h38.304v78.7232z m283.1488 0h35.0208c90.8384 0 151.6672-13.4848 182.496-40.4544 30.8256-26.9696 46.24-80.7296 46.24-161.2768v-109.3408c0-39.7248 11.216-73.984 33.6512-102.7776 22.4352-28.7936 25.184-43.1904 72.2432-43.1904v-78.176c-51.4368 0-55.28-12.2112-75.5264-36.6304-20.2464-24.4192-30.368-60.32-30.368-107.6992V201.184c0-80.544-15.4144-134.2144-46.24-161.0016C842.1888 13.3952 781.36 0 690.5216 0h-35.0208v78.176h38.304c51.072 0 84.3616 7.9296 99.8656 23.7824 15.504 15.856 23.2576 49.6608 23.2576 101.4144v146.5152c0 64.1472 12.5856 107.2448 37.7568 129.2928 25.1712 22.0512 42.24 37.9968 115.2 47.84-70.7744 8.3808-87.2928 24.5088-113.5584 48.3808-26.2656 23.872-39.3984 66.9696-39.3984 129.2928v114.2624c0 52.1184-7.7536 86.016-23.2576 101.6864-15.504 15.6704-48.7936 23.5072-99.8656 23.5072h-38.304v78.7232zM291.0272 711.7664h112.3104v111.0624H291.0272v-111.0624z m168.1024 0h112.3104v111.0624h-112.3104v-111.0624z m168.1024 0h112.3104v111.0624H627.232v-111.0624z" fill="#000000" p-id="9845"></path></svg>