<?xml version="1.0" standalone="no"?><!DOCTYPE svg PUBLIC "-//W3C//DTD SVG 1.1//EN" "http://www.w3.org/Graphics/SVG/1.1/DTD/svg11.dtd"><svg t="1552895674031" class="icon" style="" viewBox="0 0 1024 1024" version="1.1" xmlns="http://www.w3.org/2000/svg" p-id="7062" xmlns:xlink="http://www.w3.org/1999/xlink" width="200" height="200"><defs><style type="text/css"></style></defs><path d="M837.0176 256H186.9824l-26.0608 102.4h702.1056l-26.0096-102.4zM324.2496 204.8l22.528-67.3792A51.2 51.2 0 0 1 395.264 102.4h233.3696a51.2 51.2 0 0 1 48.5888 35.0208L699.7504 204.8h157.184a25.6 25.6 0 0 1 24.7808 19.3024l39.0656 153.6A25.6 25.6 0 0 1 896 409.6h-30.6176l-45.7216 465.8176a51.2 51.2 0 0 1-50.9952 46.1824h-517.12a51.2 51.2 0 0 1-50.9952-46.592L158.2592 409.6H128a25.6 25.6 0 0 1-24.832-31.8976l39.0656-153.6A25.6 25.6 0 0 1 167.1168 204.8h157.184z m53.9648 0h267.5712l-17.1008-51.2H395.3152l-17.1008 51.2z m435.712 204.8H209.664l41.8816 460.8h517.12l45.2608-460.8zM409.6 460.8h51.2v358.4H409.6V460.8z m153.6 0h51.2v358.4h-51.2V460.8z" fill="#000000" p-id="7063"></path></svg>