<?xml version="1.0" standalone="no"?><!DOCTYPE svg PUBLIC "-//W3C//DTD SVG 1.1//EN" "http://www.w3.org/Graphics/SVG/1.1/DTD/svg11.dtd"><svg class="icon" width="128px" height="128.00px" viewBox="0 0 1024 1024" version="1.1" xmlns="http://www.w3.org/2000/svg"><path fill="#515151" d="M704 128c-8.384-49.536-50.56-64-92.8-64L407.872 64C365.632 64 328.448 78.464 320 128l0 64 384 0L704 128zM204.8 412.416l0 473.216C204.8 934.144 228.288 960 281.6 960l460.8 0c53.376 0 76.8-25.856 76.8-74.368L819.2 412.416c53.952 0 76.8-29.76 76.8-78.208C896 285.696 872.512 256 819.2 256L550.4 256 204.8 256C151.488 256 128 285.696 128 334.208 128 382.656 151.488 412.416 204.8 412.416zM576 387.968C576 386.496 576.576 385.408 576.704 384l62.656 0C639.488 385.408 640 386.496 640 387.968l0 414.464c0 39.424-64 39.424-64 0L576 387.968zM384 387.968C384 386.496 384.448 385.408 384.64 384l59.136 0c0.128 1.408 0.704 2.496 0.704 3.968l0 414.464c0 39.424-60.48 39.424-60.48 0L384 387.968z" /></svg>