<svg xmlns="http://www.w3.org/2000/svg" width="20" height="20" viewBox="0 0 20 20">
    <g fill="none" fill-rule="evenodd" opacity=".6">
        <path d="M0 0h20v20H0z"/>
        <path stroke="#000" d="M3.548 7.5l.867 9.545a.5.5 0 0 0 .498.455h10.1a.5.5 0 0 0 .498-.451l.938-9.549H3.548z"/>
        <path fill="#000" d="M8 9h1v7H8zM11 9h1v7h-1z"/>
        <path stroke="#000" d="M3.264 4.5l-.764 3h15l-.764-3H3.264zM6.694 4.5h6.612l-.552-1.658a.5.5 0 0 0-.475-.342H7.721a.5.5 0 0 0-.475.342L6.694 4.5z"/>
    </g>
</svg>
