<?xml version="1.0" standalone="no"?><!DOCTYPE svg PUBLIC "-//W3C//DTD SVG 1.1//EN" "http://www.w3.org/Graphics/SVG/1.1/DTD/svg11.dtd"><svg t="1540728996967" class="icon" style="" viewBox="0 0 1024 1024" version="1.1" xmlns="http://www.w3.org/2000/svg" p-id="2678" xmlns:xlink="http://www.w3.org/1999/xlink" width="200" height="200"><defs><style type="text/css"></style></defs><path d="M460.196316 192.395705l-97.49618 97.49618L162.792167 289.891885c-7.100597 0-13.245353 2.594376-18.434106 7.783293s-7.783293 11.333509-7.783293 18.434106l0 313.790167c-15.839729 16.385854-28.538794 38.506911-38.097195 66.36301s-14.337601 58.443145-14.337601 91.76114c0 50.79626 10.241261 94.082372 30.723619 129.858335s45.197792 53.663945 74.146302 53.663945c26.217398 0 49.021152-15.020461 68.411098-45.06122 19.389946-30.040759 30.996599-67.455258 34.820123-112.243498l106.508457 0 0 157.304718c0 14.201029 5.188916 26.490542 15.566585 36.868211 10.377669 10.377833 22.667182 15.566585 36.868375 15.566585l104.869757 0c14.747317 0 27.173238-5.188916 37.277927-15.566585 10.104689-10.377669 15.157033-22.667182 15.157033-36.868211l0-157.304718 106.508457 0c3.82336 44.788076 15.430013 82.202575 34.820123 112.243498 19.389946 30.040759 42.1937 45.06122 68.411098 45.06122 28.948347 0 53.663945-17.887982 74.146302-53.663945s30.723619-79.062075 30.723619-129.858335-10.241261-94.082536-30.723619-129.858335-45.197792-53.663781-74.146302-53.663781c-26.217398 0-49.021152 15.020461-68.411098 45.06122-19.39011 30.040759-30.996763 67.455258-34.820123 112.243498l-106.508457 0L608.489249 604.501321c0-14.747317-5.052344-27.173238-15.157033-37.277927-10.104689-10.104689-22.53061-15.157033-37.277927-15.157033L503.619 552.06636 503.619 432.449286l98.315449-98.315449c4.915772-4.915772 7.373577-10.787385 7.373577-17.614838s-2.457968-12.699065-7.373577-17.614838l-106.508457-106.508457c-4.915772-4.915772-10.787385-7.373577-17.614838-7.373577S465.112089 187.479933 460.196316 192.395705zM398.749243 604.501321l0 157.304718-106.508457 0c-3.82336-44.78824-15.430013-82.202739-34.820123-112.243498-19.389946-30.040759-42.1937-45.06122-68.411098-45.06122L189.009565 342.326846l172.871303 0 89.303172 89.303172 0 120.436506c-14.201193 0-26.490542 5.052344-36.868375 15.157033C403.938159 577.328082 398.749243 589.754003 398.749243 604.501321z" p-id="2679"></path></svg>