<?xml version="1.0" standalone="no"?><!DOCTYPE svg PUBLIC "-//W3C//DTD SVG 1.1//EN" "http://www.w3.org/Graphics/SVG/1.1/DTD/svg11.dtd"><svg class="icon" width="200px" height="200.00px" viewBox="0 0 1024 1024" version="1.1" xmlns="http://www.w3.org/2000/svg"><path d="M427.472384 901.8112l255.6672-742.4c0.2048-0.5632 0.3328-1.2544 0.4608-1.8176L427.472384 901.8112zM683.241984 120.704h-77.4656a9.2928 9.2928 0 0 0-8.7296 6.2208L331.395584 898.2272a9.216 9.216 0 0 0 8.7296 12.16h77.8496c3.8912 0 7.4752-2.56 8.704-6.1952l0.7936-2.4064L683.600384 157.5424l8.4992-24.576a9.2928 9.2928 0 0 0-8.8576-12.2624z m336.8704 382.7456a22.3232 22.3232 0 0 0-3.0976-3.1232l-251.4176-196.6336a9.088 9.088 0 0 0-12.8256 1.6128 8.832 8.832 0 0 0-1.9712 5.632v93.3376c0 2.8672 1.28 5.5296 3.584 7.2448l131.9936 103.3216-131.9936 103.296a9.2672 9.2672 0 0 0-3.584 7.2448v93.3376a9.216 9.216 0 0 0 9.1648 9.1648 9.216 9.216 0 0 0 5.632-1.9456l251.4176-196.6848a18.432 18.432 0 0 0 3.0976-25.8048z m-761.728-199.7568l-251.392 196.6336a18.5088 18.5088 0 0 0 0 28.9536l251.392 196.6848a9.216 9.216 0 0 0 14.8224-7.2192V625.408a8.96 8.96 0 0 0-3.5584-7.2448L137.603584 514.816l132.0192-103.296a9.2416 9.2416 0 0 0 3.5584-7.2448v-93.3376a9.1392 9.1392 0 0 0-14.7968-7.2448z" /></svg>