<?xml version="1.0" standalone="no"?><!DOCTYPE svg PUBLIC "-//W3C//DTD SVG 1.1//EN" "http://www.w3.org/Graphics/SVG/1.1/DTD/svg11.dtd"><svg t="1552895499290" class="icon" style="" viewBox="0 0 1024 1024" version="1.1" xmlns="http://www.w3.org/2000/svg" p-id="4757" xmlns:xlink="http://www.w3.org/1999/xlink" width="200" height="200"><defs><style type="text/css"></style></defs><path d="M358.4 849.92h563.2v51.2H358.4z" fill="#000000" p-id="4758"></path><path d="M137.5232 581.8368a51.2 51.2 0 0 0 0 72.3968l181.0432 180.992a51.2 51.2 0 0 0 72.3968 0l434.4832-434.432a51.2 51.2 0 0 0 0-72.3968l-181.0432-181.0432a51.2 51.2 0 0 0-72.3968 0l-434.4832 434.4832z m-36.1984-36.1984l434.4832-434.4832a102.4 102.4 0 0 1 144.7936 0l181.0432 181.0432a102.4 102.4 0 0 1 0 144.7936L427.1616 871.424a102.4 102.4 0 0 1-144.7936 0l-181.0432-180.992a102.4 102.4 0 0 1 0-144.7936z" fill="#000000" p-id="4759"></path><path d="M193.792 484.7104l36.1984-36.1984 300.6976 300.7488-36.2496 36.1984z" fill="#000000" p-id="4760"></path></svg>