<?xml version="1.0" standalone="no"?><!DOCTYPE svg PUBLIC "-//W3C//DTD SVG 1.1//EN" "http://www.w3.org/Graphics/SVG/1.1/DTD/svg11.dtd"><svg class="icon" width="200px" height="200.00px" viewBox="0 0 1024 1024" version="1.1" xmlns="http://www.w3.org/2000/svg"><path d="M759.722667 471.210667a257.706667 257.706667 0 0 0 72.277333-179.114667v-13.568C832 135.082667 714.496 18.773333 569.770667 18.773333H175.189333a36.608 36.608 0 0 0-36.522666 36.522667v905.386667c0 21.76 17.578667 39.424 39.253333 39.424h424.96a281.514667 281.514667 0 0 0 282.453333-280.746667v-14.592c0-97.28-49.834667-183.04-125.610666-233.472zM266.666667 146.688h299.52c76.202667 0 137.813333 59.136 137.813333 132.352v12.714667c0 73.045333-61.696 132.352-137.728 132.352H266.666667V146.773333z m488.789333 572.586667c0 83.797333-68.949333 151.808-154.026667 151.808H266.666667V552.96h334.762666c85.077333 0 154.026667 68.010667 154.026667 151.893333v14.336z" /></svg>