<?xml version="1.0" standalone="no"?><!DOCTYPE svg PUBLIC "-//W3C//DTD SVG 1.1//EN" "http://www.w3.org/Graphics/SVG/1.1/DTD/svg11.dtd"><svg t="1552895505252" class="icon" style="" viewBox="0 0 1024 1024" version="1.1" xmlns="http://www.w3.org/2000/svg" p-id="4868" xmlns:xlink="http://www.w3.org/1999/xlink" width="200" height="200"><defs><style type="text/css"></style></defs><path d="M493.4656 529.1008l-20.6336-51.2512c-15.0016-36.1984-23.1936-55.808-24.5248-58.7776L416.4608 352.256c-22.528-47.872-44.2368-71.8848-65.024-71.8848-31.488 0-56.2176 27.7504-74.3424 83.1488-13.312-4.608-19.968-11.264-19.968-20.0704 0-25.7536 15.9232-55.3472 47.6672-88.6784C336.64 221.44 365.2096 204.8 390.4512 204.8c49.408 0 100.608 67.072 153.7536 201.216l13.568 33.0752 15.3088-23.04C667.2896 275.2 746.7008 204.8 811.3152 204.8c16.7936 0 36.5056 4.608 59.0848 13.7216l-80.384 79.36a101.12 101.12 0 0 0-22.6304-4.352c-48.64 0-106.7008 52.736-173.9776 158.1056l-19.2512 30.4128 15.2064 38.3488c58.2144 151.296 105.984 226.8672 143.872 226.8672 34.7136 0 61.184-23.3472 79.4112-69.9904 12.3904 7.5264 18.5856 15.2064 18.5856 23.1424 0 20.8896-17.664 45.8752-53.0944 75.008-35.4304 29.184-65.8944 43.776-91.5968 43.776-51.3536 0-103.7312-68.096-157.2864-204.3392l-18.5856-46.336-19.2 31.9488C401.2032 746.2912 314.8288 819.2 232.5504 819.2c-30.9248 0-57.2416-7.2704-78.9504-21.7088l76.9536-70.8096c13.312 12.4928 28.7744 18.7392 46.4896 18.7392 49.9712 0 106.24-47.616 168.5504-142.9504l34.56-52.5824 13.312-20.7872z" fill="#000000" p-id="4869"></path></svg>