<?xml version="1.0" standalone="no"?><!DOCTYPE svg PUBLIC "-//W3C//DTD SVG 1.1//EN" "http://www.w3.org/Graphics/SVG/1.1/DTD/svg11.dtd"><svg t="1552895535011" class="icon" style="" viewBox="0 0 1024 1024" version="1.1" xmlns="http://www.w3.org/2000/svg" p-id="5304" xmlns:xlink="http://www.w3.org/1999/xlink" width="200" height="200"><defs><style type="text/css"></style></defs><path d="M204.8 204.8a51.2 51.2 0 0 0-51.2 51.2v563.2a51.2 51.2 0 0 0 51.2 51.2h614.4a51.2 51.2 0 0 0 51.2-51.2V256a51.2 51.2 0 0 0-51.2-51.2H204.8z m0-51.2h614.4a102.4 102.4 0 0 1 102.4 102.4v563.2a102.4 102.4 0 0 1-102.4 102.4H204.8a102.4 102.4 0 0 1-102.4-102.4V256a102.4 102.4 0 0 1 102.4-102.4z" fill="#000000" p-id="5305"></path><path d="M142.6432 738.816l-36.352-36.0448 205.1584-206.8992 144.3328 146.2784-36.4544 35.9424-107.9808-109.4144zM358.4 435.2a76.8 76.8 0 1 1 0-153.6 76.8 76.8 0 0 1 0 153.6z m0-51.2a25.6 25.6 0 1 0 0-51.2 25.6 25.6 0 0 0 0 51.2z" fill="#000000" p-id="5306"></path><path d="M673.3312 466.7392l-433.664 453.9392-37.0688-35.3792 469.504-491.4176 236.544 231.5776-35.7888 36.608z" fill="#000000" p-id="5307"></path></svg>