<?xml version="1.0" standalone="no"?><!DOCTYPE svg PUBLIC "-//W3C//DTD SVG 1.1//EN" "http://www.w3.org/Graphics/SVG/1.1/DTD/svg11.dtd"><svg class="icon" width="200px" height="200.00px" viewBox="0 0 1024 1024" version="1.1" xmlns="http://www.w3.org/2000/svg"><path d="M938.544291 89.367377l-3.895886-3.894703c-90.994069-90.989317-239.847217-90.989317-330.836169 0L393.050619 296.228725c-90.994069 90.987271-90.994069 239.866043 0 330.823638l3.895886 3.895727c7.547192 7.610328 15.581499 14.404058 23.916669 20.716834l77.186032-77.18901c-8.96453-5.314029-17.482879-11.685133-25.214275-19.35686l-3.894863-3.895727c-49.434878-49.341778-49.434878-129.733737 0-179.165566l210.702263-210.757075c49.405201-49.434899 129.769753-49.434899 179.17393 0l3.89998 3.895727c49.375524 49.405223 49.375524 129.763412 0 179.168636L767.340196 439.73207c16.582333 40.889269 24.431413 84.463694 23.708929 127.949091l147.435811-147.427724C1029.533243 329.20579 1029.533243 180.355671 938.544291 89.367377zM627.006421 393.104099c-7.553333-7.549953-15.585592-14.432711-23.917692-20.714787l-77.192173 77.124542c8.97067 5.317099 17.483903 11.68718 25.215298 19.327184l3.895886 3.927449c49.439995 49.4042 49.439995 129.730667 0 179.166589L344.305477 862.750479c-49.405201 49.345871-129.768729 49.345871-179.17393 0l-3.894863-3.865028c-49.379617-49.465598-49.379617-129.793088 0-179.196265l95.369905-95.365998c-16.582333-40.889269-24.372059-84.46574-23.707906-127.95216L85.461849 603.798752c-90.988952 90.987271-90.988952 239.866043 0 330.822614l3.89998 3.928472c90.988952 90.957595 239.843124 90.957595 330.838216 0l210.761617-210.816426c90.989975-90.958618 90.989975-239.835344 0-330.793962L627.006421 393.104099z" /></svg>