<?xml version="1.0" standalone="no"?><!DOCTYPE svg PUBLIC "-//W3C//DTD SVG 1.1//EN" "http://www.w3.org/Graphics/SVG/1.1/DTD/svg11.dtd"><svg class="icon" width="200px" height="200.00px" viewBox="0 0 1024 1024" version="1.1" xmlns="http://www.w3.org/2000/svg"><path d="M288.04137 166.05184c14.41792 0 28.2624 2.8672 41.5744 8.51968 13.27104 5.69344 24.65792 13.27104 34.16064 22.7328 9.46176 9.50272 17.08032 20.6848 22.77376 33.5872 5.69344 12.86144 8.51968 26.50112 8.51968 40.91904 0 29.57312-10.4448 54.59968-31.29344 75.07968-20.8896 20.48-46.12096 30.72-75.73504 30.72-14.41792 0-28.0576-2.70336-40.96-7.9872a97.60768 97.60768 0 0 1-33.5872-22.7328 119.1936 119.1936 0 0 1-22.77376-33.5872 99.04128 99.04128 0 0 1-8.56064-41.49248c0-14.41792 2.8672-28.0576 8.56064-40.96 5.69344-12.86144 13.27104-24.04352 22.77376-33.54624 9.46176-9.46176 20.6848-17.03936 33.5872-22.7328a100.51584 100.51584 0 0 1 40.96-8.51968zM916.53161 0c38.7072 0 66.19136 10.81344 82.5344 32.39936 16.30208 21.62688 24.45312 49.84832 24.45312 84.74624v816.57856c0 10.60864-2.4576 21.42208-7.3728 32.39936s-11.75552 20.64384-20.48 28.99968c-8.76544 8.35584-18.8416 15.1552-30.18752 20.48-11.38688 5.3248-23.92064 7.94624-37.56032 7.94624H88.81193c-23.51104 0-44.2368-9.46176-62.0544-28.42624A96.0512 96.0512 0 0 1 0.01065 926.88384V94.4128C0.01065 67.09248 7.58825 44.52352 22.78441 26.70592 37.93961 8.88832 58.09193 0 83.11849 0h833.41312z m4.5056 133.07904a30.47424 30.47424 0 0 0-9.6256-22.20032 31.82592 31.82592 0 0 0-23.3472-9.66656H134.35945a29.98272 29.98272 0 0 0-22.77376 9.66656 31.41632 31.41632 0 0 0-9.09312 22.20032V541.32736c7.5776 9.13408 17.6128 19.53792 30.14656 31.29344a259.6864 259.6864 0 0 0 44.40064 32.9728c17.08032 10.24 36.4544 18.96448 58.08128 26.17344a227.9424 227.9424 0 0 0 72.2944 10.81344c40.96 0 77.0048-6.63552 108.1344-19.90656a488.6528 488.6528 0 0 0 88.2688-48.90624c27.68896-19.33312 54.84544-40.5504 81.38752-63.6928a731.42272 731.42272 0 0 1 87.08096-64.83968c31.5392-20.0704 67.3792-37.15072 107.60192-51.2 40.22272-14.00832 87.28576-22.1184 141.18912-24.41216V133.07904z" /></svg>