<?xml version="1.0" standalone="no"?><!DOCTYPE svg PUBLIC "-//W3C//DTD SVG 1.1//EN" "http://www.w3.org/Graphics/SVG/1.1/DTD/svg11.dtd"><svg class="icon" width="200px" height="185.84px" viewBox="0 0 1102 1024" version="1.1" xmlns="http://www.w3.org/2000/svg"><path d="M1080.250549 450.146304c-1.496256 1.575007-3.543765 2.126259-5.197522 3.465015l-306.338806 306.338806c-1.338756 1.653757-1.890008 3.701266-3.465014 5.197522-1.496256 1.575007-3.543765 2.126259-5.197523 3.465015L662.165017 866.499329H866.600888a78.750336 78.750336 0 0 1 0 157.500671H317.9473a78.671585 78.671585 0 0 1-59.850255-25.436358l-229.95098-229.95098C26.492308 767.273906 24.444799 766.722653 22.948543 765.147647A77.49033 77.49033 0 0 1 0.189696 708.998657a77.49033 77.49033 0 0 1 22.758847-56.148989c1.496256-1.575007 3.543765-2.126259 5.197522-3.465015l306.338806-306.338805c1.338756-1.653757 1.890008-3.701266 3.465014-5.197522 1.496256-1.575007 3.543765-2.126259 5.197523-3.465015l306.338805-306.338806c1.338756-1.653757 1.890008-3.701266 3.465015-5.197522A77.49033 77.49033 0 0 1 709.100217 0.088136a77.49033 77.49033 0 0 1 56.14899 22.758847c1.575007 1.496256 2.126259 3.543765 3.465014 5.197522l306.338806 306.338806c1.653757 1.338756 3.701266 1.890008 5.197522 3.465015a77.49033 77.49033 0 0 1 22.758847 56.148989 77.49033 77.49033 0 0 1-22.758847 56.148989zM347.163675 866.499329h93.8704l157.500671-157.500672L394.098875 504.562786 189.663003 708.998657l157.500672 157.500672zM709.100217 189.561444L504.664346 393.997315 709.100217 598.433186 913.536089 393.997315 709.100217 189.561444z" /></svg>