<?xml version="1.0" standalone="no"?><!DOCTYPE svg PUBLIC "-//W3C//DTD SVG 1.1//EN" "http://www.w3.org/Graphics/SVG/1.1/DTD/svg11.dtd"><svg t="1552895542920" class="icon" style="" viewBox="0 0 1024 1024" version="1.1" xmlns="http://www.w3.org/2000/svg" p-id="5415" xmlns:xlink="http://www.w3.org/1999/xlink" width="200" height="200"><defs><style type="text/css"></style></defs><path d="M665.088 512H921.6v51.2h-199.6288c17.0496 24.832 25.6512 53.9136 25.6512 87.3472 0 56.2176-23.9616 101.376-70.9632 134.5536-45.1584 31.3344-105.0624 47.0016-179.712 47.0016-75.5712 0-135.4752-17.5104-178.7904-51.6096-49.7664-39.6288-77.4144-99.5328-82.944-178.7904h55.296c6.4512 61.7472 27.648 107.8272 64.512 138.24 33.1776 26.7264 80.1792 40.5504 141.0048 40.5504 58.0608 0 105.0624-11.9808 141.0048-34.0992 35.0208-23.04 53.4528-54.3744 53.4528-93.0816 0-36.7616-15.2576-66.7648-44.8-90.112H102.4v-51.2h426.3936c-15.1552-4.608-31.8976-9.472-50.2784-14.4384-78.336-22.1184-129.024-39.6288-151.1424-52.5312-50.688-28.5696-75.5712-70.0416-75.5712-123.4944 0-57.1392 23.04-100.4544 70.9632-130.8672 42.3936-28.5696 97.6896-42.3936 164.0448-42.3936 71.8848 0 129.024 17.5104 171.4176 52.5312 43.3152 35.0208 68.1984 86.6304 73.728 154.8288h-56.2176c-7.3728-51.6096-26.7264-90.3168-58.0608-117.0432-31.3344-26.7264-75.5712-39.6288-132.7104-39.6288-53.4528 0-94.9248 9.216-125.3376 27.648-35.0208 20.2752-51.6096 51.6096-51.6096 93.0816 0 36.864 20.2752 65.4336 61.7472 87.552 19.3536 9.216 61.7472 23.9616 126.2592 42.3936 83.4048 23.808 139.4688 44.032 169.0624 62.3616z" fill="#000000" p-id="5416"></path></svg>