<?xml version="1.0" standalone="no"?><!DOCTYPE svg PUBLIC "-//W3C//DTD SVG 1.1//EN" "http://www.w3.org/Graphics/SVG/1.1/DTD/svg11.dtd"><svg class="icon" width="200px" height="200.00px" viewBox="0 0 1024 1024" version="1.1" xmlns="http://www.w3.org/2000/svg"><path d="M215.80114499 955.11348892c50.94620249-2.88793886 101.22595969-11.55175537 152.7645584-11.55175535 39.32039807 0 79.23319465 0.59239845 119.14599117 1.18479469 32.95212199 0.59239845 67.08904083 11.55175537 100.04116277 11.55175538 12.73655008 0 24.88070387-1.70314416 37.61725397-1.70314418 4.66513197-19.1048262 8.07141809-38.20965239 9.25621499-57.24042741-35.84006083-5.77587767-71.75417278-9.84861123-107.00183737-17.92003148l-0.59239628-10.4410097c-2.29554042-24.28830544 26.06549857-139.43561205 31.84137629-167.20425475 30.65658156-148.69182484 67.68143927-298.49439762 95.45008197-448.3710172 5.77587767-32.95212199 8.66381652-67.08904083 21.4003666-98.3380208 39.32039807-15.62448892 81.60278405-21.99276506 121.51558058-35.84006083 4.591083-16.80928578 8.66381652-34.21096784 10.95935693-51.53860093-61.31316314 3.48033727-122.62632629 9.25621497-183.93948942 9.25621499-75.23451007 0-150.98736745-5.77587767-225.62947689-9.25621499l-11.03340811 59.61001903c34.72931509 5.77587767 73.45731696 1.18479472 105.29869321 18.51242992v14.43969421c1.70314416 46.28107047-124.40351941 613.79807881-131.88254125 653.11847695-4.07273353 20.21557193-10.44100965 41.68998966-23.695907 58.42522429-34.72931509 17.9200315-74.64211166 22.58516347-111.66696934 34.13691665l-9.84861122 49.16901151z" /></svg>