<?xml version="1.0" standalone="no"?><!DOCTYPE svg PUBLIC "-//W3C//DTD SVG 1.1//EN" "http://www.w3.org/Graphics/SVG/1.1/DTD/svg11.dtd"><svg class="icon" width="200px" height="178.55px" viewBox="0 0 1147 1024" version="1.1" xmlns="http://www.w3.org/2000/svg"><path d="M753.441054 488.930632s-369.00991-46.113742-369.009909-230.618696c0-92.252477 73.806981-138.391213 193.727703-138.391214 119.945716 0 166.059458 55.361484 175.282206 73.806981s18.445497 36.890993 27.668245 64.584233l138.391214-27.693239c-9.222748-36.890993-18.445497-73.806981-36.915988-101.475226C864.139029 101.475226 781.109299 0 578.158848 0S236.817183 119.920722 236.817183 267.534684c0 147.588968 119.945716 212.1732 119.945717 212.1732H0v92.252477h624.297584s166.034464 27.668245 166.034464 166.059458c0 129.143471-101.475226 166.059458-221.395948 166.059459-166.059458 0-230.618697-119.945716-249.089188-166.059459l-138.366219 27.668245c27.668245 92.252477 92.252477 258.311936 378.232658 258.311936 341.341665 0 359.787161-249.089187 359.787162-295.202929 0-119.945716-55.361484-166.059458-55.361484-166.059458h282.930925v-73.806981H753.441054z" /></svg>