<?xml version="1.0" standalone="no"?><!DOCTYPE svg PUBLIC "-//W3C//DTD SVG 1.1//EN" "http://www.w3.org/Graphics/SVG/1.1/DTD/svg11.dtd"><svg t="1552895479773" class="icon" style="" viewBox="0 0 1024 1024" version="1.1" xmlns="http://www.w3.org/2000/svg" p-id="4425" xmlns:xlink="http://www.w3.org/1999/xlink" width="200" height="200"><defs><style type="text/css"></style></defs><path d="M487.936 570.2144l-33.8432 38.4-34.048-30.208a227.1744 227.1744 0 0 1 0-321.28l81.408-81.4592a227.1744 227.1744 0 1 1 321.3312 321.28l-81.408 81.4592-36.2496-36.1984L786.5856 460.8a176.0256 176.0256 0 0 0-248.8832-248.9344L456.192 293.2736c-68.7616 68.7616-68.7616 180.224-1.1776 247.8592l32.9216 29.0816z m21.3504-140.8l32.512-39.6288 36.608 30.208a227.1744 227.1744 0 0 1 0 321.3312l-81.408 81.4592A227.1744 227.1744 0 1 1 175.616 501.504l81.408-81.4592 36.2496 36.1984-81.4592 81.408a175.9744 175.9744 0 1 0 248.8832 248.9344l81.4592-81.408c68.7616-68.7616 68.7616-180.224 1.8944-247.296l-34.816-28.4672z" fill="#000000" p-id="4426"></path></svg>