<?xml version="1.0" standalone="no"?><!DOCTYPE svg PUBLIC "-//W3C//DTD SVG 1.1//EN" "http://www.w3.org/Graphics/SVG/1.1/DTD/svg11.dtd"><svg t="1552895597479" class="icon" style="" viewBox="0 0 1024 1024" version="1.1" xmlns="http://www.w3.org/2000/svg" p-id="5961" xmlns:xlink="http://www.w3.org/1999/xlink" width="200" height="200"><defs><style type="text/css"></style></defs><path d="M230.4 179.2h301.3632c65.4336 0 117.0432 15.6672 153.9072 47.0016 34.0992 29.4912 51.6096 69.12 51.6096 118.8864 0 36.864-9.216 68.1984-26.7264 94.0032-17.5104 23.9616-42.3936 41.472-75.5712 54.3744 43.3152 8.2944 75.5712 25.8048 97.6896 52.5312 21.1968 25.8048 32.256 61.7472 32.256 105.984 0 66.3552-23.04 115.2-68.1984 146.5344-38.7072 25.8048-94.0032 38.7072-164.0448 38.7072H230.4V179.2z m102.4 88.4736V455.68h170.3936c46.08 0 78.336-8.2944 97.6896-23.04 18.432-15.6672 28.5696-40.5504 28.5696-74.6496 0-31.3344-10.1376-54.3744-28.5696-68.1984-20.2752-14.7456-51.6096-22.1184-95.8464-22.1184H332.8512z m0 276.48v204.5952h184.2176c40.5504 0 72.8064-6.4512 95.8464-19.3536 29.4912-16.5888 44.2368-42.3936 44.2368-79.2576 0-37.7856-11.0592-64.512-32.256-81.1008-22.1184-16.5888-57.1392-24.8832-105.0624-24.8832H332.8512z" fill="#000000" p-id="5962"></path></svg>