<?xml version="1.0" standalone="no"?><!DOCTYPE svg PUBLIC "-//W3C//DTD SVG 1.1//EN" "http://www.w3.org/Graphics/SVG/1.1/DTD/svg11.dtd"><svg t="1552895429024" class="icon" style="" viewBox="0 0 1024 1024" version="1.1" xmlns="http://www.w3.org/2000/svg" p-id="3873" xmlns:xlink="http://www.w3.org/1999/xlink" width="200" height="200"><defs><style type="text/css"></style></defs><path d="M753.357312 921.6h-51.2v-51.2h51.2v51.2z m-102.4 0h-51.2v-51.2h51.2v51.2z m-102.4 0h-51.2v-51.2h51.2v51.2z m-102.4512 0h-51.2v-51.2h51.2v51.2z m-102.4 0h-51.2v-51.2h51.2v51.2z m-151.552-13.9264l21.4528-46.4896c10.24 4.7104 21.1968 7.6288 32.6144 8.7552l-4.8128 50.5856-49.2032-12.8512z m611.6864 8.3968l-11.8272-48.4864c11.1616-2.7136 21.6576-7.2192 31.1808-13.4144l28.0576 43.52-47.4112 18.432zM118.784512 838.656l46.0288-23.8592c5.2736 10.1376 12.1344 19.3536 20.48 27.2896l-35.328 36.9664-31.1808-40.448z m767.6416 22.528l-38.144-29.696c7.2192-9.2672 12.6976-19.3536 16.384-30.0032l46.336 16.0256c0.512 0.1536 1.1776 0.512 1.9968 1.024l-24.1664 43.9296a11.008 11.008 0 0 1-2.4064-1.28zM104.499712 797.0816A202.1888 202.1888 0 0 1 102.400512 767.9488v-29.2352h51.2v29.2352c0 5.0176 0.3584 9.8304 1.024 14.6432l-50.1248 14.4896zM921.600512 767.9488h-51.2V716.8h51.2v51.1488zM153.600512 687.5136H102.400512v-51.2h51.2v51.2zM921.600512 665.6h-51.2V614.4h51.2v51.2zM153.600512 585.1136H102.400512v-51.2h51.2v51.2zM921.600512 563.2h-51.2V512h51.2v51.2zM153.600512 482.7136H102.400512v-51.2h51.2v51.2zM921.600512 460.8h-51.2V409.6h51.2v51.2z" fill="#000000" p-id="3874"></path><path d="M460.800512 204.8h256v51.2H460.800512zM307.200512 204.8h102.4v51.2H307.200512z" fill="#000000" p-id="3875"></path><path d="M153.600512 307.2h716.8V256a102.4 102.4 0 0 0-102.4-102.4H256.000512a102.4 102.4 0 0 0-102.4 102.4v51.2z m102.4-204.8h512a153.6 153.6 0 0 1 153.6 153.6v102.4H102.400512V256a153.6 153.6 0 0 1 153.6-153.6z" fill="#000000" p-id="3876"></path></svg>