<?xml version="1.0" standalone="no"?><!DOCTYPE svg PUBLIC "-//W3C//DTD SVG 1.1//EN" "http://www.w3.org/Graphics/SVG/1.1/DTD/svg11.dtd"><svg t="1538746217524" class="icon" style="" viewBox="0 0 1024 1024" version="1.1" xmlns="http://www.w3.org/2000/svg" p-id="38944" xmlns:xlink="http://www.w3.org/1999/xlink" width="200" height="200"><defs><style type="text/css"></style></defs><path d="M372.706 187.621v60.569h429.327v-60.569H372.706z m-185.096 0v60.208h125.356v-60.208H187.61z m740.386 185.096H64.212V64.223h863.783v308.494zM125.911 866.308H64.212v-61.699h61.699v61.699z m0-123.398H64.212v-61.699h61.699v61.699z m0-123.398H64.212v-61.699h61.699v61.699z m0-123.397H64.212v-61.699h61.699v61.699z m0 431.891H64.212v-61.699h61.699v61.699z m61.699 0h-61.699v-61.699h61.699v61.699z m123.397 0h-61.699v-61.699h61.699v61.699z m123.398 0h-61.699v-61.699h61.699v61.699z m308.494 0H681.2v-61.699h61.699v61.699z m-123.397 0h-61.699v-61.699h61.699v61.699z m246.795 0h-61.699v-61.699h61.699v61.699z m61.699 0h-61.699v-61.699h61.699v61.699z m0-61.698h-61.699v-61.699h61.699v61.699z m0-123.398h-61.699v-61.699h61.699v61.699z m0-123.398h-61.699v-61.699h61.699v61.699z m0-123.397h-61.699v-61.699h61.699v61.699z" p-id="38945"></path></svg>