<svg xmlns="http://www.w3.org/2000/svg" width="20" height="20" viewBox="0 0 20 20">
    <g fill="none" fill-rule="evenodd">
        <path d="M0 0h20v20H0z"/>
        <path fill="#000" d="M16.03 8.72c.68 0 1.24.17 1.66.52.41.35.62.82.62 1.42 0 .8-.39 1.34-1.17 1.6.42.13.74.33.96.61.24.28.36.63.36 1.05 0 .65-.23 1.18-.68 1.59-.46.42-1.06.63-1.8.63-.68 0-1.23-.18-1.66-.52-.51-.42-.79-1.03-.85-1.83h.83c.02.56.21.99.56 1.28.3.24.67.37 1.12.37.51 0 .92-.15 1.23-.44.28-.28.43-.63.43-1.05 0-.43-.14-.76-.42-1-.28-.24-.66-.35-1.16-.35h-.58v-.64h.55c.48 0 .84-.11 1.09-.32.25-.22.38-.53.38-.93s-.13-.71-.37-.93c-.26-.24-.63-.35-1.09-.35-.48 0-.85.12-1.12.38-.28.26-.44.63-.49 1.11h-.81c.06-.69.32-1.23.76-1.62.42-.39.97-.58 1.65-.58zM1 3h1v5.995h9.009V3H12v13h-.991v-5.986H2V16H1z"/>
    </g>
</svg>
