<?xml version="1.0" standalone="no"?><!DOCTYPE svg PUBLIC "-//W3C//DTD SVG 1.1//EN" "http://www.w3.org/Graphics/SVG/1.1/DTD/svg11.dtd"><svg t="1538745353909" class="icon" style="fill: rgb(29, 176, 184)" viewBox="0 0 1024 1024" version="1.1" xmlns="http://www.w3.org/2000/svg" p-id="16040" xmlns:xlink="http://www.w3.org/1999/xlink" width="200" height="200"><defs><style type="text/css"></style></defs><path d="M825.912889 548.693333a105.585778 105.585778 0 0 0-70.769778 21.845334h-1.251555a98.702222 98.702222 0 0 1 98.304-80.099556 151.608889 151.608889 0 0 1 31.288888 3.811556c20.024889 3.072 32.540444 0.568889 40.049778-23.210667l9.329778-29.354667a30.378667 30.378667 0 0 0-21.219556-43.235555 275.171556 275.171556 0 0 0-66.958222-8.135111c-138.353778 0-214.072889 123.904-214.072889 252.245333 0 140.856889 91.363556 210.261333 181.475556 210.261333a153.941333 153.941333 0 0 0 152.746667-158.947555 138.752 138.752 0 0 0-138.922667-145.180445z m-13.084445 204.003556c-38.286222 0-69.575111-46.307556-69.575111-82.602667 0-26.908444 17.521778-33.166222 41.301334-33.166222 55.125333 0 72.647111 33.792 72.647111 63.829333a46.762667 46.762667 0 0 1-44.373334 51.939556zM568.888889 227.555556v568.888888a56.888889 56.888889 0 0 1-113.777778 0v-227.555555H170.666667v227.555555a56.888889 56.888889 0 0 1-113.777778 0V227.555556a56.888889 56.888889 0 0 1 113.777778 0v227.555555h284.444444V227.555556a56.888889 56.888889 0 0 1 113.777778 0z" p-id="16041"></path></svg>