<?xml version="1.0" standalone="no"?><!DOCTYPE svg PUBLIC "-//W3C//DTD SVG 1.1//EN" "http://www.w3.org/Graphics/SVG/1.1/DTD/svg11.dtd"><svg t="1552895618032" class="icon" style="" viewBox="0 0 1024 1024" version="1.1" xmlns="http://www.w3.org/2000/svg" p-id="6397" xmlns:xlink="http://www.w3.org/1999/xlink" width="200" height="200"><defs><style type="text/css"></style></defs><path d="M822.272 446.464c33.792 0 61.44 9.728 83.456 29.184 21.504 19.456 32.768 45.568 32.768 77.312s-12.288 60.416-35.84 86.016c-12.8 13.312-37.888 33.28-75.776 58.88-46.592 31.232-73.216 59.392-79.872 83.968h192V819.2h-243.712c0-33.28 11.776-63.488 36.352-90.624 14.336-16.384 40.448-38.4 79.36-65.024 28.672-20.48 47.616-35.328 57.344-45.568 18.432-19.968 28.16-41.984 28.16-65.536 0-22.528-6.656-39.424-19.968-51.712s-32.256-18.432-55.808-18.432c-25.088 0-44.544 8.192-57.856 25.6-14.336 16.384-22.016 40.96-22.528 73.216h-41.984c0-40.96 11.776-73.728 34.304-97.792 22.528-24.576 52.736-36.864 89.6-36.864zM51.2 153.6h51.2v306.944h461.2608V153.6H614.4v665.6h-50.7392v-306.4832H102.4V819.2H51.2z" fill="#000000" p-id="6398"></path></svg>