<svg xmlns="http://www.w3.org/2000/svg" width="20" height="20" viewBox="0 0 20 20">
    <g fill="none" fill-rule="evenodd">
        <path d="M0 0h20v20H0z"/>
        <path fill="#000" d="M16.06 8.72c.66 0 1.2.19 1.63.57.42.38.64.89.64 1.51s-.24 1.18-.7 1.68c-.25.26-.74.65-1.48 1.15-.91.61-1.43 1.16-1.56 1.64h3.75V16h-4.76c0-.65.23-1.24.71-1.77.28-.32.79-.75 1.55-1.27.56-.4.93-.69 1.12-.89.36-.39.55-.82.55-1.28 0-.44-.13-.77-.39-1.01s-.63-.36-1.09-.36c-.49 0-.87.16-1.13.5-.28.32-.43.8-.44 1.43h-.82c0-.8.23-1.44.67-1.91.44-.48 1.03-.72 1.75-.72zM1 3h1v5.995h9.009V3H12v13h-.991v-5.986H2V16H1z"/>
    </g>
</svg>
