<?xml version="1.0" standalone="no"?><!DOCTYPE svg PUBLIC "-//W3C//DTD SVG 1.1//EN" "http://www.w3.org/Graphics/SVG/1.1/DTD/svg11.dtd"><svg t="1538745395000" class="icon" style="fill: rgb(86, 163, 108)" viewBox="0 0 1024 1024" version="1.1" xmlns="http://www.w3.org/2000/svg" p-id="17157" xmlns:xlink="http://www.w3.org/1999/xlink" width="200" height="200"><defs><style type="text/css"></style></defs><path d="M568.888889 227.555556v568.888888a56.888889 56.888889 0 0 1-113.777778 0v-227.555555H170.666667v227.555555a56.888889 56.888889 0 0 1-113.777778 0V227.555556a56.888889 56.888889 0 0 1 113.777778 0v227.555555h284.444444V227.555556a56.888889 56.888889 0 0 1 113.777778 0z m345.201778 523.889777H852.764444v-319.146666a30.72 30.72 0 0 0-34.417777-34.474667h-35.726223a57.514667 57.514667 0 0 0-42.552888 16.896l-77.596445 72.590222a30.890667 30.890667 0 0 0-1.251555 48.867556l16.270222 17.464889a30.663111 30.663111 0 0 0 48.184889 1.934222l5.688889-5.006222a69.063111 69.063111 0 0 0 13.710222-20.081778h1.308444s-0.682667 17.578667-0.682666 34.474667v186.481777h-60.700445a30.72 30.72 0 0 0-34.417778 34.417778v25.031111a30.72 30.72 0 0 0 34.417778 34.417778h229.091556a30.72 30.72 0 0 0 34.417777-34.417778v-25.031111a30.72 30.72 0 0 0-34.417777-34.417778z" p-id="17158"></path></svg>