<?xml version="1.0" standalone="no"?><!DOCTYPE svg PUBLIC "-//W3C//DTD SVG 1.1//EN" "http://www.w3.org/Graphics/SVG/1.1/DTD/svg11.dtd"><svg t="1552895409750" class="icon" style="" viewBox="0 0 1024 1024" version="1.1" xmlns="http://www.w3.org/2000/svg" p-id="3545" xmlns:xlink="http://www.w3.org/1999/xlink" width="200" height="200"><defs><style type="text/css"></style></defs><path d="M728.832 727.9616c3.0208 25.6512 14.9504 43.4176 35.7888 53.248 10.6496 4.9664 22.9888 7.4752 36.9664 7.4752 26.6752 0 46.4384-8.4992 59.2384-25.4976 12.8512-16.9984 19.2512-35.84 19.2512-56.4736 0-25.0368-7.5776-44.3392-22.8352-58.0096a79.36 79.36 0 0 0-54.8864-20.48c-15.5136 0-28.7744 2.9696-39.8848 8.96-11.0592 6.0416-20.5312 14.336-28.3648 25.0368l-39.0144-2.2528 27.2384-192.768h186.0096v43.52h-152.2176l-15.2576 99.4816c8.2944-6.3488 16.2304-11.1104 23.7568-14.2336 13.312-5.5296 28.7232-8.2432 46.2336-8.2432 32.8192 0 60.672 10.5472 83.456 31.744 22.8864 21.1456 34.304 47.9744 34.304 80.4864 0 33.792-10.496 63.6416-31.3856 89.4976-20.9408 25.856-54.272 38.7584-100.1472 38.7584a127.488 127.488 0 0 1-77.312-24.6272c-22.4768-16.384-35.0208-41.6256-37.6832-75.6224h46.7456zM51.2 153.6h51.2v306.944h461.2608V153.6H614.4v665.6h-50.7392v-306.4832H102.4V819.2H51.2z" fill="#000000" p-id="3546"></path></svg>