<?xml version="1.0" standalone="no"?><!DOCTYPE svg PUBLIC "-//W3C//DTD SVG 1.1//EN" "http://www.w3.org/Graphics/SVG/1.1/DTD/svg11.dtd"><svg t="1538745376110" class="icon" style="" viewBox="0 0 1024 1024" version="1.1" xmlns="http://www.w3.org/2000/svg" p-id="16373" xmlns:xlink="http://www.w3.org/1999/xlink" width="200" height="200"><defs><style type="text/css"></style></defs><path d="M947.313778 700.131556a152.120889 152.120889 0 0 1-165.831111 152.689777 225.621333 225.621333 0 0 1-128.341334-38.115555 31.857778 31.857778 0 0 1-7.509333-47.616l16.896-27.534222c11.946667-19.342222 27.534222-20.650667 46.933333-8.760889a132.380444 132.380444 0 0 0 63.886223 18.773333c40.675556 0 63.829333-20.024889 63.829333-44.430222 0-35.043556-35.043556-49.436444-83.285333-49.436445h-2.446223a37.091556 37.091556 0 0 1-38.855111-23.836444l-3.128889-6.200889a38.172444 38.172444 0 0 1 8.135111-44.430222l40.732445-49.493334a486.570667 486.570667 0 0 1 38.798222-41.927111V488.675556a224.142222 224.142222 0 0 1-42.552889 3.128888h-72.647111a30.72 30.72 0 0 1-34.417778-34.474666v-25.031111a30.72 30.72 0 0 1 34.417778-34.417778h213.447111a30.606222 30.606222 0 0 1 34.417778 33.792v10.069333a58.993778 58.993778 0 0 1-15.644444 42.552889l-75.093334 86.300445a131.470222 131.470222 0 0 1 108.259556 129.592888zM512 170.666667a56.888889 56.888889 0 0 0-56.888889 56.888889v227.555555H170.666667V227.555556a56.888889 56.888889 0 0 0-113.777778 0v568.888888a56.888889 56.888889 0 0 0 113.777778 0v-227.555555h284.444444v227.555555a56.888889 56.888889 0 0 0 113.777778 0V227.555556a56.888889 56.888889 0 0 0-56.888889-56.888889z" p-id="16374"></path></svg>