<?xml version="1.0" standalone="no"?><!DOCTYPE svg PUBLIC "-//W3C//DTD SVG 1.1//EN" "http://www.w3.org/Graphics/SVG/1.1/DTD/svg11.dtd"><svg t="1552895401625" class="icon" style="" viewBox="0 0 1024 1024" version="1.1" xmlns="http://www.w3.org/2000/svg" p-id="3436" xmlns:xlink="http://www.w3.org/1999/xlink" width="200" height="200"><defs><style type="text/css"></style></defs><path d="M815.36 459.7248c39.9872 0 67.84 10.3424 83.6096 31.0784 15.7696 20.7872 23.6544 42.1376 23.6544 64.1536h-44.544c-2.6624-14.1824-6.912-25.2416-12.7488-33.28-10.8032-15.0016-27.2384-22.4768-49.2544-22.4768-25.1392 0-45.1584 11.6224-59.9552 34.8672-14.848 23.2448-23.0912 56.5248-24.7808 99.84a97.792 97.792 0 0 1 39.0144-33.9456c14.336-6.656 30.3104-10.0352 47.9744-10.0352a116.736 116.736 0 0 1 78.5408 28.7744c22.3232 19.1488 33.4848 47.7696 33.4848 85.76a130.048 130.048 0 0 1-31.744 86.3744c-21.1968 25.088-51.3536 37.632-90.5216 37.632-33.4848 0-62.4128-12.7488-86.7328-38.144-24.32-25.3952-36.5056-68.1984-36.5056-128.3584 0-44.544 5.4272-82.2784 16.2304-113.2544 20.8384-59.392 58.9312-88.9856 114.2784-88.9856z m-3.2768 328.704c23.7056 0 41.3696-7.936 53.1456-23.8592 11.776-15.872 17.6128-34.7136 17.6128-56.3712 0-18.3296-5.2224-35.7888-15.7184-52.3776-10.5472-16.5888-29.5936-24.8832-57.2928-24.8832-19.3024 0-36.2496 6.4512-50.8416 19.2512-14.592 12.8-21.9136 32.1536-21.9136 58.0096 0 22.6816 6.656 41.728 19.9168 57.1392 13.2096 15.36 31.5904 23.0912 55.0912 23.0912zM51.2 153.6h51.2v306.944h461.2608V153.6H614.4v665.6h-50.7392v-306.4832H102.4V819.2H51.2z" fill="#000000" p-id="3437"></path></svg>