<?xml version="1.0" standalone="no"?><!DOCTYPE svg PUBLIC "-//W3C//DTD SVG 1.1//EN" "http://www.w3.org/Graphics/SVG/1.1/DTD/svg11.dtd"><svg t="1538745380409" class="icon" style="" viewBox="0 0 1024 1024" version="1.1" xmlns="http://www.w3.org/2000/svg" p-id="16484" xmlns:xlink="http://www.w3.org/1999/xlink" width="200" height="200"><defs><style type="text/css"></style></defs><path d="M952.32 785.863111v25.031111a30.72 30.72 0 0 1-34.417778 34.417778h-243.484444a33.223111 33.223111 0 0 1-36.920889-34.417778v-13.710222c0-165.319111 193.422222-194.673778 193.422222-259.128889a44.202667 44.202667 0 0 0-48.241778-44.430222 66.958222 66.958222 0 0 0-47.559111 21.902222c-15.644444 14.961778-31.857778 21.276444-48.810666 7.452445l-24.405334-19.342223c-17.521778-13.824-21.902222-29.468444-8.760889-46.364444a169.073778 169.073778 0 0 1 139.605334-66.958222 139.605333 139.605333 0 0 1 152.689777 137.102222c0 139.548444-180.906667 166.456889-186.538666 224.028444h159.004444a30.72 30.72 0 0 1 34.417778 34.417778zM512 170.666667a56.888889 56.888889 0 0 0-56.888889 56.888889v227.555555H170.666667V227.555556a56.888889 56.888889 0 0 0-113.777778 0v568.888888a56.888889 56.888889 0 0 0 113.777778 0v-227.555555h284.444444v227.555555a56.888889 56.888889 0 0 0 113.777778 0V227.555556a56.888889 56.888889 0 0 0-56.888889-56.888889z" p-id="16485"></path></svg>