<?xml version="1.0" standalone="no"?><!DOCTYPE svg PUBLIC "-//W3C//DTD SVG 1.1//EN" "http://www.w3.org/Graphics/SVG/1.1/DTD/svg11.dtd"><svg t="1538745370798" class="icon" style="fill: rgb(46, 104, 170)" viewBox="0 0 1024 1024" version="1.1" xmlns="http://www.w3.org/2000/svg" p-id="16262" xmlns:xlink="http://www.w3.org/1999/xlink" width="200" height="200"><defs><style type="text/css"></style></defs><path d="M568.888889 227.555556v568.888888a56.888889 56.888889 0 0 1-113.777778 0v-227.555555H170.666667v227.555555a56.888889 56.888889 0 0 1-113.777778 0V227.555556a56.888889 56.888889 0 0 1 113.777778 0v227.555555h284.444444V227.555556a56.888889 56.888889 0 0 1 113.777778 0z m401.294222 453.176888v21.902223c0 22.528-9.386667 34.417778-26.282667 34.417777h-26.908444v73.841778a30.72 30.72 0 0 1-34.417778 34.417778h-39.480889a30.72 30.72 0 0 1-34.417777-34.417778v-73.841778h-163.953778a30.776889 30.776889 0 0 1-34.417778-34.417777v-8.760889a68.209778 68.209778 0 0 1 12.515556-42.552889l145.806222-230.968889a44.487111 44.487111 0 0 1 41.301333-22.528h72.647111a30.72 30.72 0 0 1 34.417778 34.474667v214.016h18.773333a30.72 30.72 0 0 1 34.417778 34.417777zM812.373333 496.071111h-1.251555a238.364444 238.364444 0 0 1-21.902222 46.250667l-67.584 102.684444v1.251556h87.04v-100.124445a400.497778 400.497778 0 0 1 3.697777-50.062222z" p-id="16263"></path></svg>