<?xml version="1.0" standalone="no"?><!DOCTYPE svg PUBLIC "-//W3C//DTD SVG 1.1//EN" "http://www.w3.org/Graphics/SVG/1.1/DTD/svg11.dtd"><svg t="1552895609006" class="icon" style="" viewBox="0 0 1024 1024" version="1.1" xmlns="http://www.w3.org/2000/svg" p-id="6179" xmlns:xlink="http://www.w3.org/1999/xlink" width="200" height="200"><defs><style type="text/css"></style></defs><path d="M820.736 446.464c34.816 0 63.488 8.704 84.992 26.624 20.992 17.92 31.744 41.984 31.744 72.704 0 40.96-19.968 68.608-59.904 81.92 21.504 6.656 37.888 16.896 49.152 31.232 12.288 14.336 18.432 32.256 18.432 53.76 0 33.28-11.776 60.416-34.816 81.408-23.552 21.504-54.272 32.256-92.16 32.256-34.816 0-62.976-9.216-84.992-26.624-26.112-21.504-40.448-52.736-43.52-93.696h42.496c1.024 28.672 10.752 50.688 28.672 65.536 15.36 12.288 34.304 18.944 57.344 18.944 26.112 0 47.104-7.68 62.976-22.528 14.336-14.336 22.016-32.256 22.016-53.76 0-22.016-7.168-38.912-21.504-51.2-14.336-12.288-33.792-17.92-59.392-17.92h-29.696v-32.768h28.16c24.576 0 43.008-5.632 55.808-16.384 12.8-11.264 19.456-27.136 19.456-47.616s-6.656-36.352-18.944-47.616c-13.312-12.288-32.256-17.92-55.808-17.92-24.576 0-43.52 6.144-57.344 19.456-14.336 13.312-22.528 32.256-25.088 56.832h-41.472c3.072-35.328 16.384-62.976 38.912-82.944 21.504-19.968 49.664-29.696 84.48-29.696zM51.2 153.6h51.2v306.944h461.2608V153.6H614.4v665.6h-50.7392v-306.4832H102.4V819.2H51.2z" fill="#000000" p-id="6180"></path></svg>