<?xml version="1.0" standalone="no"?><!DOCTYPE svg PUBLIC "-//W3C//DTD SVG 1.1//EN" "http://www.w3.org/Graphics/SVG/1.1/DTD/svg11.dtd"><svg t="1538745363195" class="icon" style="fill: rgb(126, 136, 79)" viewBox="0 0 1024 1024" version="1.1" xmlns="http://www.w3.org/2000/svg" p-id="16151" xmlns:xlink="http://www.w3.org/1999/xlink" width="200" height="200"><defs><style type="text/css"></style></defs><path d="M952.32 693.248a156.501333 156.501333 0 0 1-165.831111 159.573333 222.321778 222.321778 0 0 1-128.341333-38.741333 31.175111 31.175111 0 0 1-7.509334-46.990222l16.896-27.534222c11.946667-19.342222 27.534222-20.650667 46.990222-8.760889a127.317333 127.317333 0 0 0 62.577778 18.773333 57.912889 57.912889 0 0 0 62.577778-55.068444c0-35.043556-30.72-55.751111-71.395556-55.751112a122.652444 122.652444 0 0 0-36.920888 5.688889 65.536 65.536 0 0 1-46.307556 0.568889l-6.826667-2.446222a36.465778 36.465778 0 0 1-25.713777-40.675556l13.141333-170.894222a32.256 32.256 0 0 1 35.726222-33.166222h182.727111a30.72 30.72 0 0 1 34.417778 34.474667v25.031111a30.72 30.72 0 0 1-34.417778 34.417778h-120.832l-2.446222 41.244444a73.557333 73.557333 0 0 1-2.503111 17.578667h1.251555a136.419556 136.419556 0 0 1 32.540445-4.380445 144.099556 144.099556 0 0 1 160.199111 147.057778zM512 170.666667a56.888889 56.888889 0 0 0-56.888889 56.888889v227.555555H170.666667V227.555556a56.888889 56.888889 0 0 0-113.777778 0v568.888888a56.888889 56.888889 0 0 0 113.777778 0v-227.555555h284.444444v227.555555a56.888889 56.888889 0 0 0 113.777778 0V227.555556a56.888889 56.888889 0 0 0-56.888889-56.888889z" p-id="16152"></path></svg>