<?xml version="1.0" standalone="no"?><!DOCTYPE svg PUBLIC "-//W3C//DTD SVG 1.1//EN" "http://www.w3.org/Graphics/SVG/1.1/DTD/svg11.dtd"><svg t="1538746088652" class="icon" style="" viewBox="0 0 1024 1024" version="1.1" xmlns="http://www.w3.org/2000/svg" p-id="37485" xmlns:xlink="http://www.w3.org/1999/xlink" width="200" height="200"><defs><style type="text/css"></style></defs><path d="M153.6 153.6h716.8a51.2 51.2 0 0 1 0 102.4H153.6a51.2 51.2 0 1 1 0-102.4z m0 614.4h716.8a51.2 51.2 0 0 1 0 102.4H153.6a51.2 51.2 0 0 1 0-102.4z m0-307.2h131.6352a51.2 51.2 0 1 1 0 102.4H153.6a51.2 51.2 0 0 1 0-102.4z m292.5568 0h131.6864a51.2 51.2 0 0 1 0 102.4H446.1568a51.2 51.2 0 0 1 0-102.4z m292.608 0H870.4a51.2 51.2 0 0 1 0 102.4h-131.6352a51.2 51.2 0 0 1 0-102.4z" fill="#666666" p-id="37486"></path></svg>