<?xml version="1.0" standalone="no"?><!DOCTYPE svg PUBLIC "-//W3C//DTD SVG 1.1//EN" "http://www.w3.org/Graphics/SVG/1.1/DTD/svg11.dtd"><svg t="1538764773782" class="icon" style="fill: rgb(13, 23, 64)" viewBox="0 0 1365 1024" version="1.1" xmlns="http://www.w3.org/2000/svg" p-id="3050" xmlns:xlink="http://www.w3.org/1999/xlink" width="266.6015625" height="200"><defs><style type="text/css"></style></defs><path d="M437.333333 224l-59.733333-59.733333c-8.533333-8.533333-21.333333-8.533333-29.866667 0L14.933333 497.066667c-4.266667 4.266667-6.4 10.666667-6.4 14.933333s2.133333 10.666667 6.4 14.933333l332.8 332.8c8.533333 8.533333 21.333333 8.533333 29.866667 0l59.733333-59.733333c8.533333-8.533333 8.533333-21.333333 0-29.866667l-256-256 256-256c8.533333-10.666667 8.533333-25.6 0-34.133333z m910.933334 273.066667L1017.6 164.266667c-8.533333-8.533333-21.333333-8.533333-29.866667 0l-59.733333 59.733333c-8.533333 8.533333-8.533333 21.333333 0 29.866667l256 256-256 256c-8.533333 8.533333-8.533333 21.333333 0 29.866666l59.733333 59.733334c8.533333 8.533333 21.333333 8.533333 29.866667 0l332.8-332.8c4.266667-4.266667 6.4-10.666667 6.4-14.933334-2.133333-2.133333-4.266667-6.4-8.533333-10.666666z m-505.6-469.333334c-34.133333-10.666667-70.4 8.533333-81.066667 40.533334l-277.333333 851.2c-10.666667 34.133333 8.533333 70.4 40.533333 81.066666s70.4-8.533333 81.066667-40.533333l277.333333-853.333333c10.666667-32-6.4-68.266667-40.533333-78.933334z" fill="#333333" p-id="3051"></path></svg>