<?xml version="1.0" standalone="no"?><!DOCTYPE svg PUBLIC "-//W3C//DTD SVG 1.1//EN" "http://www.w3.org/Graphics/SVG/1.1/DTD/svg11.dtd"><svg t="1539010427656" class="icon" style="" viewBox="0 0 1024 1024" version="1.1" xmlns="http://www.w3.org/2000/svg" p-id="4256" xmlns:xlink="http://www.w3.org/1999/xlink" width="200" height="200"><defs><style type="text/css"></style></defs><path d="M928 128H96C42.98 128 0 170.98 0 224v576c0 53.02 42.98 96 96 96h832c53.02 0 96-42.98 96-96V224c0-53.02-42.98-96-96-96z m-12 672H108a12 12 0 0 1-12-12V236a12 12 0 0 1 12-12h808a12 12 0 0 1 12 12v552a12 12 0 0 1-12 12zM256 304c-44.182 0-80 35.818-80 80s35.818 80 80 80 80-35.818 80-80-35.818-80-80-80zM192 704h640v-160l-175.03-175.03c-9.372-9.372-24.568-9.372-33.942 0L384 608l-79.03-79.03c-9.372-9.372-24.568-9.372-33.942 0L192 608v96z" p-id="4257" fill="#bfbfbf"></path></svg>