<?xml version="1.0" standalone="no"?><!DOCTYPE svg PUBLIC "-//W3C//DTD SVG 1.1//EN" "http://www.w3.org/Graphics/SVG/1.1/DTD/svg11.dtd"><svg t="1511634563351" class="icon" style="" viewBox="0 0 1024 1024" version="1.1" xmlns="http://www.w3.org/2000/svg" p-id="11227" xmlns:xlink="http://www.w3.org/1999/xlink" width="200" height="200"><defs><style type="text/css"></style></defs><path d="M974.834347 885.79072L262.120107 885.79072l275.968-478.334293 103.983787-103.983787 20.800853-124.781227 62.388907-41.59488 249.56928 0c22.96832 0 41.588053 18.623147 41.588053 41.59488l0 665.504427C1016.418987 867.16416 997.799253 885.79072 974.834347 885.79072zM795.14624 407.456427l-138.407253 320.382293-97.447253-191.699627-145.98144 287.259307 202.1376 0 89.849173 0 269.533867 0L795.14624 407.456427zM538.09152 303.47264c0 0-24.695467 28.822187-52.114773 60.808533-34.218667 39.908693-72.66304 84.770133-72.66304 84.770133L249.531733 885.79072 59.76064 885.79072c-22.96832 0-41.59488-18.62656-41.59488-41.59488L18.16576 178.691413c0-22.971733 18.62656-41.59488 41.59488-41.59488l519.922347 0c0 0-20.794027 74.861227-20.794027 83.186347C558.88896 228.611413 538.09152 303.47264 538.09152 303.47264zM267.728213 261.87776c-57.43616 0-103.983787 46.55104-103.983787 103.9872 0 57.43616 46.547627 103.980373 103.983787 103.980373 57.43616 0 103.990613-46.547627 103.990613-103.980373C371.715413 308.4288 325.164373 261.87776 267.728213 261.87776z" p-id="11228" fill="#2c2c2c"></path></svg>