<svg xmlns="http://www.w3.org/2000/svg" width="20" height="20" viewBox="0 0 20 20">
    <g fill="none" fill-rule="evenodd">
        <path d="M0 0h20v20H0z"/>
        <path fill="#000" fill-rule="nonzero" d="M8.48 9.538L4.779 4.966h3.754s1.32-.103 1.797.565c.476.668.634 1.695.634 1.695h.476l-.211-3.133h-9.04v.462l4.652 5.548-4.652 5.29v.514h9.25l.583-3.493-.476-.103s-.159.77-.793 1.49c-.635.72-3.12.616-3.12.616h-3.33l4.177-4.88zm6.092.476l-.155-.397-.184-.455-.239-.517c-.17-.371-.332-.557-.488-.557-.236 0-.422.215-.558.644-.1-.036-.15-.087-.15-.155 0-.2.12-.43.358-.687.24-.258.454-.387.643-.387.37 0 .755.52 1.154 1.558l.102.256.114-.179c.708-1.09 1.304-1.635 1.788-1.635.126 0 .274.035.444.106l-.603.615a.738.738 0 0 0-.17-.034c-.365 0-.801.408-1.306 1.224l-.144.236.114.297c.436 1.171.795 1.757 1.08 1.757.26 0 .459-.181.595-.542.093.058.14.117.14.179 0 .161-.133.355-.399.58-.265.226-.494.34-.687.34-.385 0-.779-.528-1.18-1.583l-.14-.358-.144.247c-.678 1.13-1.325 1.694-1.943 1.694-.232 0-.43-.057-.592-.168l.577-.549c.1.097.216.145.349.145.375 0 .797-.369 1.265-1.107l.259-.407.1-.16z"/>
    </g>
</svg>
