<?xml version="1.0" standalone="no"?><!DOCTYPE svg PUBLIC "-//W3C//DTD SVG 1.1//EN" "http://www.w3.org/Graphics/SVG/1.1/DTD/svg11.dtd"><svg t="1552895493340" class="icon" style="" viewBox="0 0 1024 1024" version="1.1" xmlns="http://www.w3.org/2000/svg" p-id="4648" xmlns:xlink="http://www.w3.org/1999/xlink" width="200" height="200"><defs><style type="text/css"></style></defs><path d="M434.176 488.3456L244.6848 254.2592h192.2048s67.584-5.2736 92.0064 28.928c24.3712 34.2016 32.4608 86.784 32.4608 86.784h24.3712l-10.8032-160.4096h-462.848v23.6544l238.1824 284.0576-238.1824 270.848v26.3168h473.6l29.8496-178.8416-24.3712-5.2736s-8.1408 39.424-40.6016 76.288c-32.512 36.864-159.744 31.5392-159.744 31.5392h-170.496l213.8624-249.856z m311.9104 24.3712l-7.936-20.3264-9.4208-23.296-12.2368-26.4704c-8.704-18.9952-16.9984-28.5184-24.9856-28.5184-12.0832 0-21.6064 11.008-28.5696 32.9728-5.12-1.8432-7.68-4.4544-7.68-7.936 0-10.24 6.144-22.016 18.3296-35.1744 12.288-13.2096 23.2448-19.8144 32.9216-19.8144 18.944 0 38.656 26.624 59.0848 79.7696l5.2224 13.1072 5.8368-9.1648c36.2496-55.808 66.7648-83.712 91.5456-83.712 6.4512 0 14.0288 1.792 22.7328 5.4272l-30.8736 31.488a37.7856 37.7856 0 0 0-8.704-1.7408c-18.688 0-41.0112 20.8896-66.8672 62.6688l-7.3728 12.0832 5.8368 15.2064c22.3232 59.9552 40.704 89.9584 55.296 89.9584 13.312 0 23.5008-9.2672 30.464-27.7504 4.7616 2.9696 7.168 5.9904 7.168 9.1648 0 8.2432-6.8096 18.176-20.4288 29.696-13.568 11.5712-25.2928 17.408-35.1744 17.408-19.712 0-39.8848-27.0336-60.416-81.0496l-7.168-18.3296-7.3728 12.6464c-34.7136 57.856-67.84 86.7328-99.4816 86.7328-11.8784 0-22.016-2.9184-30.3104-8.6016l29.5424-28.1088c5.12 4.9664 11.0592 7.424 17.8688 7.424 19.2 0 40.8064-18.8928 64.768-56.6784l13.2608-20.8384 5.12-8.192z" fill="#000000" p-id="4649"></path></svg>