<?xml version="1.0" standalone="no"?><!DOCTYPE svg PUBLIC "-//W3C//DTD SVG 1.1//EN" "http://www.w3.org/Graphics/SVG/1.1/DTD/svg11.dtd"><svg t="1538745770269" class="icon" style="fill: rgb(252, 214, 146)" viewBox="0 0 1024 1024" version="1.1" xmlns="http://www.w3.org/2000/svg" p-id="30163" xmlns:xlink="http://www.w3.org/1999/xlink" width="200" height="200"><defs><style type="text/css"></style></defs><path d="M423.472 480.08l-249.12-315.632h252.672s88.944-7.104 120.976 39.008 42.704 117.04 42.704 117.04h32.032l-14.224-216.352H0v31.92l313.136 383.024L0 884.384v35.472h622.736l39.152-241.184-32.032-7.088s-10.672 53.2-53.376 102.848c-42.704 49.664-209.968 42.56-209.968 42.56H142.336l281.136-336.912zM833.568 512.976l-10.4-27.408c-7.6-19.36-11.728-29.84-12.4-31.408l-16.08-35.744c-11.408-25.6-22.352-38.432-32.864-38.432-15.888 0-28.4 14.832-37.552 44.448-6.72-2.448-10.08-6.016-10.08-10.704 0-13.792 8.048-29.616 24.08-47.424 16.096-17.824 30.528-26.72 43.264-26.72 24.976 0 50.832 35.856 77.68 107.584l6.848 17.68 7.728-12.336c47.616-75.28 87.728-112.928 120.352-112.928 8.496 0 18.448 2.448 29.856 7.344l-40.608 42.432c-5.376-1.552-9.184-2.336-11.424-2.336-24.576 0-53.92 28.192-87.904 84.544l-9.712 16.24 7.664 20.512c29.408 80.88 53.568 121.312 72.704 121.312 17.536 0 30.896-12.496 40.112-37.424 6.256 4.016 9.376 8.128 9.376 12.368 0 11.152-8.928 24.512-26.816 40.096-17.888 15.584-33.28 23.408-46.272 23.408-25.936 0-52.416-36.432-79.456-109.264l-9.392-24.752-9.712 17.072c-45.6 77.968-89.2 116.944-130.784 116.944-15.632 0-28.928-3.888-39.888-11.6l38.88-37.872c6.72 6.688 14.544 10.016 23.488 10.016 25.232 0 53.664-25.472 85.152-76.416l17.44-28.128 6.72-11.104z" p-id="30164"></path></svg>