<?xml version="1.0" standalone="no"?><!DOCTYPE svg PUBLIC "-//W3C//DTD SVG 1.1//EN" "http://www.w3.org/Graphics/SVG/1.1/DTD/svg11.dtd"><svg t="1552895614019" class="icon" style="" viewBox="0 0 1024 1024" version="1.1" xmlns="http://www.w3.org/2000/svg" p-id="6288" xmlns:xlink="http://www.w3.org/1999/xlink" width="200" height="200"><defs><style type="text/css"></style></defs><path d="M307.2 512h512v51.2H307.2zM307.2 819.2h614.4v51.2H307.2zM307.2 204.8h614.4v51.2H307.2zM124.416 153.6h16.384v182.784h-20.992V179.2a97.792 97.792 0 0 1-43.008 25.088v-20.992c8.192-2.304 16.896-5.888 25.6-11.008 8.704-5.632 15.872-11.776 22.016-18.688zM130.56 428.032c16.896 0 30.72 4.864 41.728 14.592 10.752 9.728 16.384 22.784 16.384 38.656s-6.144 30.208-17.92 43.008c-6.4 6.656-18.944 16.64-37.888 29.44-23.296 15.616-36.608 29.696-39.936 41.984H188.928V614.4H67.072c0-16.64 5.888-31.744 18.176-45.312 7.168-8.192 20.224-19.2 39.68-32.512 14.336-10.24 23.808-17.664 28.672-22.784 9.216-9.984 14.08-20.992 14.08-32.768 0-11.264-3.328-19.712-9.984-25.856s-16.128-9.216-27.904-9.216c-12.544 0-22.272 4.096-28.928 12.8-7.168 8.192-11.008 20.48-11.264 36.608h-20.992c0-20.48 5.888-36.864 17.152-48.896 11.264-12.288 26.368-18.432 44.8-18.432zM129.792 735.232c17.408 0 31.744 4.352 42.496 13.312 10.496 8.96 15.872 20.992 15.872 36.352 0 20.48-9.984 34.304-29.952 40.96a48.128 48.128 0 0 1 24.576 15.616c6.144 7.168 9.216 16.128 9.216 26.88 0 16.64-5.888 30.208-17.408 40.704-11.776 10.752-27.136 16.128-46.08 16.128-17.408 0-31.488-4.608-42.496-13.312-13.056-10.752-20.224-26.368-21.76-46.848h21.248c0.512 14.336 5.376 25.344 14.336 32.768 7.68 6.144 17.152 9.472 28.672 9.472 13.056 0 23.552-3.84 31.488-11.264a36.6592 36.6592 0 0 0 11.008-26.88c0-11.008-3.584-19.456-10.752-25.6-7.168-6.144-16.896-8.96-29.696-8.96h-14.848v-16.384h14.08c12.288 0 21.504-2.816 27.904-8.192a30.1056 30.1056 0 0 0 9.728-23.808c0-10.24-3.328-18.176-9.472-23.808-6.656-6.144-16.128-8.96-27.904-8.96-12.288 0-21.76 3.072-28.672 9.728-7.168 6.656-11.264 16.128-12.544 28.416H68.096c1.536-17.664 8.192-31.488 19.456-41.472 10.752-9.984 24.832-14.848 42.24-14.848z" fill="#000000" p-id="6289"></path></svg>