<svg xmlns="http://www.w3.org/2000/svg" width="20" height="20" viewBox="0 0 20 20">
    <g fill="none" fill-rule="evenodd">
        <path d="M0 0h20v20H0z"/>
        <path fill="#000" d="M6 10h10v1H6zM6 16h12v1H6zM6 4h12v1H6zM2.43 3h.32v3.57h-.41V3.5a1.91 1.91 0 0 1-.84.49v-.41c.16-.045.33-.115.5-.215.17-.11.31-.23.43-.365zM2.55 8.36c.33 0 .6.095.815.285.21.19.32.445.32.755s-.12.59-.35.84c-.125.13-.37.325-.74.575-.455.305-.715.58-.78.82H3.69V12H1.31c0-.325.115-.62.355-.885.14-.16.395-.375.775-.635.28-.2.465-.345.56-.445.18-.195.275-.41.275-.64 0-.22-.065-.385-.195-.505s-.315-.18-.545-.18c-.245 0-.435.08-.565.25-.14.16-.215.4-.22.715h-.41c0-.4.115-.72.335-.955.22-.24.515-.36.875-.36zM2.535 14.36c.34 0 .62.085.83.26.205.175.31.41.31.71 0 .4-.195.67-.585.8a.94.94 0 0 1 .48.305c.12.14.18.315.18.525 0 .325-.115.59-.34.795-.23.21-.53.315-.9.315-.34 0-.615-.09-.83-.26-.255-.21-.395-.515-.425-.915h.415c.01.28.105.495.28.64.15.12.335.185.56.185.255 0 .46-.075.615-.22a.716.716 0 0 0 .215-.525c0-.215-.07-.38-.21-.5-.14-.12-.33-.175-.58-.175h-.29v-.32h.275c.24 0 .42-.055.545-.16a.588.588 0 0 0 .19-.465c0-.2-.065-.355-.185-.465-.13-.12-.315-.175-.545-.175-.24 0-.425.06-.56.19-.14.13-.22.315-.245.555H1.33c.03-.345.16-.615.38-.81.21-.195.485-.29.825-.29z"/>
    </g>
</svg>
