<?xml version="1.0" standalone="no"?><!DOCTYPE svg PUBLIC "-//W3C//DTD SVG 1.1//EN" "http://www.w3.org/Graphics/SVG/1.1/DTD/svg11.dtd"><svg t="1538746061858" class="icon" style="fill: rgb(224, 54, 54)" viewBox="0 0 1024 1024" version="1.1" xmlns="http://www.w3.org/2000/svg" p-id="36775" xmlns:xlink="http://www.w3.org/1999/xlink" width="200" height="200"><defs><style type="text/css"></style></defs><path d="M700.862415 270.768867c5.907547 0 10.543124 0.026606 15.172561-0.005117 24.210401-0.164752 48.480154 0.707105 72.617901-0.781806 31.058366-1.917676 49.374524-24.665773 48.165999-57.246819-1.043772-28.1532-23.405059-48.867988-52.845579-48.871057-130.472564-0.013303-260.948197-0.00921-391.419737 0.00921-4.685719 0-9.401114-0.107447-14.049994 0.387833-99.896174 10.653641-176.138626 88.731904-189.608406 194.07923-13.425777 105.012705 50.848085 209.305003 148.306744 237.842966 24.850991 7.277754 51.190893 8.971325 78.531588 13.509688 0 81.296561 0 164.511821 0 248.40451l101.992929 0c0-195.842387 0-390.903991 0-586.441433 27.116591 0 53.422723 0 81.305771 0 0 195.98565 0 391.183354 0 586.441433l101.830223 0C700.862415 662.234653 700.862415 466.934618 700.862415 270.768867zM415.116439 497.803673c-43.236733 4.761444-79.004355-9.04705-104.521518-45.971008-26.719548-38.670741-29.53671-80.843236-7.151887-122.372072 23.896246-44.332694 62.209854-62.162782 111.674429-58.168818C415.116439 347.20677 415.116439 422.032966 415.116439 497.803673z" p-id="36776"></path></svg>