<?xml version="1.0" standalone="no"?><!DOCTYPE svg PUBLIC "-//W3C//DTD SVG 1.1//EN" "http://www.w3.org/Graphics/SVG/1.1/DTD/svg11.dtd"><svg t="1552895465429" class="icon" style="" viewBox="0 0 1024 1024" version="1.1" xmlns="http://www.w3.org/2000/svg" p-id="4205" xmlns:xlink="http://www.w3.org/1999/xlink" width="200" height="200"><defs><style type="text/css"></style></defs><path d="M632.32 304.64c33.792 0 62.976 13.824 84.48 41.472 19.968 27.648 30.72 62.976 30.72 109.056 0 67.584-19.968 127.488-59.904 178.176-39.936 49.152-93.696 82.944-158.208 101.376v-76.8c39.936-13.824 72.192-35.328 96.768-66.048 23.04-32.256 33.792-66.048 33.792-102.912-6.144 3.072-18.432 4.608-33.792 4.608-26.112 0-47.616-9.216-66.048-27.648-18.432-18.432-27.648-39.936-27.648-66.048 0-29.184 9.216-52.224 29.184-69.12 16.896-18.432 39.936-26.112 70.656-26.112z m-302.592 0c33.792 0 61.44 13.824 82.944 41.472 19.968 27.648 30.72 62.976 30.72 109.056 0 67.584-19.968 127.488-59.904 178.176-39.936 49.152-93.696 82.944-158.208 101.376v-76.8c39.936-13.824 70.656-35.328 95.232-66.048 24.576-32.256 35.328-66.048 35.328-102.912-6.144 3.072-18.432 4.608-33.792 4.608-26.112 0-47.616-9.216-64.512-27.648-18.432-18.432-27.648-39.936-27.648-66.048 0-29.184 7.68-52.224 26.112-69.12 18.432-18.432 43.008-26.112 73.728-26.112z" fill="#000000" p-id="4206"></path></svg>