<?xml version="1.0" standalone="no"?><!DOCTYPE svg PUBLIC "-//W3C//DTD SVG 1.1//EN" "http://www.w3.org/Graphics/SVG/1.1/DTD/svg11.dtd"><svg t="1538745668673" class="icon" style="" viewBox="0 0 1024 1024" version="1.1" xmlns="http://www.w3.org/2000/svg" p-id="26837" xmlns:xlink="http://www.w3.org/1999/xlink" width="200" height="200"><defs><style type="text/css"></style></defs><path d="M57.6 172.8c-17.066667 19.2-32 42.666667-40.533333 68.266667C6.4 266.666667 2.133333 294.4 2.133333 320c0 55.466667 17.066667 102.4 49.066667 140.8 32 38.4 72.533333 61.866667 123.733333 68.266667H192l12.8 4.266666c23.466667 2.133333 34.133333 10.666667 34.133333 25.6s-14.933333 40.533333-44.8 72.533334C164.266667 667.733333 113.066667 704 42.666667 740.266667c-29.866667 14.933333-42.666667 34.133333-42.666667 57.6 0 14.933333 6.4 27.733333 14.933333 36.266666 10.666667 8.533333 23.466667 14.933333 38.4 14.933334 38.4 0 91.733333-23.466667 157.866667-68.266667 78.933333-53.333333 142.933333-117.333333 189.866667-194.133333C448 512 471.466667 437.333333 469.333333 362.666667c0-34.133333-6.4-68.266667-21.333333-102.4-12.8-34.133333-32-61.866667-53.333333-85.333334-46.933333-51.2-104.533333-76.8-170.666667-74.666666-68.266667 0-123.733333 25.6-166.4 72.533333zM612.266667 172.8c-17.066667 19.2-32 42.666667-40.533334 68.266667-10.666667 25.6-14.933333 53.333333-14.933333 78.933333 0 55.466667 17.066667 102.4 49.066667 140.8 32 38.4 72.533333 61.866667 123.733333 68.266667h17.066667l14.933333 2.133333c23.466667 2.133333 34.133333 10.666667 34.133333 25.6s-14.933333 40.533333-44.8 72.533333c-32 36.266667-83.2 72.533333-151.466666 108.8-29.866667 14.933333-42.666667 34.133333-42.666667 57.6 0 14.933333 6.4 27.733333 14.933333 36.266667 10.666667 8.533333 23.466667 14.933333 38.4 14.933333 38.4 0 91.733333-23.466667 157.866667-68.266666 78.933333-53.333333 142.933333-117.333333 189.866667-194.133334C1002.666667 512 1024 437.333333 1024 364.8c0-34.133333-6.4-68.266667-21.333333-102.4-12.8-34.133333-32-61.866667-53.333334-85.333333-46.933333-51.2-104.533333-76.8-170.666666-74.666667-68.266667-2.133333-123.733333 23.466667-166.4 70.4z" fill="" p-id="26838"></path></svg>