<?xml version="1.0" standalone="no"?><!DOCTYPE svg PUBLIC "-//W3C//DTD SVG 1.1//EN" "http://www.w3.org/Graphics/SVG/1.1/DTD/svg11.dtd"><svg t="1540728926061" class="icon" style="" viewBox="0 0 1024 1024" version="1.1" xmlns="http://www.w3.org/2000/svg" p-id="2165" xmlns:xlink="http://www.w3.org/1999/xlink" width="200" height="200"><defs><style type="text/css"></style></defs><path d="M211.91 606.15V409.82a111.23 111.23 0 0 0 0-210.65V99a36 36 0 0 0-72 0v100.33a111.23 111.23 0 0 0 0 210.32v197.18c-43.62 15.91-75 59.15-75 109.88s31.37 94 75 109.88V922a36 36 0 0 0 72 0v-94.73c44.62-15.33 76.91-59.09 76.91-110.56s-32.29-95.23-76.91-110.56z m-35.76-340.88a39.22 39.22 0 1 1-39.22 39.22 39.27 39.27 0 0 1 39.22-39.22z m0.73 495.84c-22 0-40-19.92-40-44.4s17.92-44.4 40-44.4 40 19.92 40 44.4-17.98 44.4-40.01 44.4z m242.95-477.32h401a36 36 0 0 0 0-72h-401a36 36 0 0 0 0 72z m0 139.01h246.92a36 36 0 0 0 0-72H419.83a36 36 0 0 0 0 72z m401.02 199.25h-401a36 36 0 0 0 0 72h401a36 36 0 0 0 0-72z m-154.1 139H419.83a36 36 0 1 0 0 72h246.92a36 36 0 0 0 0-72z" fill="" p-id="2166"></path></svg>