<?xml version="1.0" standalone="no"?><!DOCTYPE svg PUBLIC "-//W3C//DTD SVG 1.1//EN" "http://www.w3.org/Graphics/SVG/1.1/DTD/svg11.dtd"><svg t="1552895574874" class="icon" style="" viewBox="0 0 1024 1024" version="1.1" xmlns="http://www.w3.org/2000/svg" p-id="5633" xmlns:xlink="http://www.w3.org/1999/xlink" width="200" height="200"><defs><style type="text/css"></style></defs><path d="M512 819.2v-102.4H153.6v-51.2h358.4v-102.4H153.6v-51.2h358.4V409.6h51.2v102.4h358.4v51.2h-358.4v102.4h358.4v51.2h-358.4v102.4h307.2a51.2 51.2 0 0 0 51.2-51.2V409.6H153.6v358.4a51.2 51.2 0 0 0 51.2 51.2h307.2zM204.8 153.6h665.6a102.4 102.4 0 0 1 102.4 102.4v512a102.4 102.4 0 0 1-102.4 102.4H204.8a102.4 102.4 0 0 1-102.4-102.4V256a102.4 102.4 0 0 1 102.4-102.4zM153.6 358.4h768V256a51.2 51.2 0 0 0-51.2-51.2H204.8a51.2 51.2 0 0 0-51.2 51.2v102.4z" fill="#000000" p-id="5634"></path></svg>