<?xml version="1.0" standalone="no"?><!DOCTYPE svg PUBLIC "-//W3C//DTD SVG 1.1//EN" "http://www.w3.org/Graphics/SVG/1.1/DTD/svg11.dtd"><svg t="1538745518856" class="icon" style="fill=#515151" viewBox="0 0 1024 1024" version="1.1" xmlns="http://www.w3.org/2000/svg" p-id="22859" xmlns:xlink="http://www.w3.org/1999/xlink" width="200" height="200"><defs><style type="text/css"></style></defs><path d="M921.543111 1023.93363H102.456889c-56.547556 0-102.390519-45.842963-102.390519-102.390519V102.456889C0.06637 45.966222 45.928296 0.06637 102.456889 0.06637h819.086222c56.528593 0 102.390519 45.899852 102.390519 102.390519v819.086222c0 56.547556-45.842963 102.390519-102.390519 102.390519zM329.509926 800.379259H70.684444v64.673185a88.272593 88.272593 0 0 0 88.263112 88.272593h170.56237V800.369778z m296.457481-0.284444H493.568v0.284444H400.118519v152.936297h225.848888v-153.220741z m327.348149 0H696.576v153.220741h168.485926a88.272593 88.272593 0 0 0 88.25363-88.263112v-64.957629zM70.684444 600.832v128.929185h258.825482V600.841481H70.684444z m555.282963-0.493037H493.568v0.493037H400.118519v128.654222h225.848888V600.338963z m327.348149 0H696.576v129.137778h256.739556v-129.137778zM70.684444 364.942222v165.262222h258.825482v-165.262222H70.684444z m555.282963 0H400.118519V529.73037h225.848888V364.951704z m327.348149 0H696.576V529.73037h256.739556V364.951704z" p-id="22860"></path></svg>