<?xml version="1.0" standalone="no"?><!DOCTYPE svg PUBLIC "-//W3C//DTD SVG 1.1//EN" "http://www.w3.org/Graphics/SVG/1.1/DTD/svg11.dtd"><svg class="icon" width="128px" height="128.00px" viewBox="0 0 1024 1024" version="1.1" xmlns="http://www.w3.org/2000/svg"><path fill="#515151" d="M329.142857 786.285714v-109.714285q0-8-5.142857-13.142858t-13.142857-5.142857H128q-8 0-13.142857 5.142857t-5.142857 13.142858v109.714285q0 8 5.142857 13.142857t13.142857 5.142858h182.857143q8 0 13.142857-5.142858t5.142857-13.142857z m0-219.428571V457.142857q0-8-5.142857-13.142857t-13.142857-5.142857H128q-8 0-13.142857 5.142857t-5.142857 13.142857v109.714286q0 8 5.142857 13.142857t13.142857 5.142857h182.857143q8 0 13.142857-5.142857t5.142857-13.142857z m292.571429 219.428571v-109.714285q0-8-5.142857-13.142858t-13.142858-5.142857H420.571429q-8 0-13.142858 5.142857t-5.142857 13.142858v109.714285q0 8 5.142857 13.142857t13.142858 5.142858h182.857142q8 0 13.142858-5.142858t5.142857-13.142857zM329.142857 347.428571V237.714286q0-8-5.142857-13.142857t-13.142857-5.142858H128q-8 0-13.142857 5.142858t-5.142857 13.142857v109.714285q0 8 5.142857 13.142858t13.142857 5.142857h182.857143q8 0 13.142857-5.142857t5.142857-13.142858z m292.571429 219.428572V457.142857q0-8-5.142857-13.142857t-13.142858-5.142857H420.571429q-8 0-13.142858 5.142857t-5.142857 13.142857v109.714286q0 8 5.142857 13.142857t13.142858 5.142857h182.857142q8 0 13.142858-5.142857t5.142857-13.142857z m292.571428 219.428571v-109.714285q0-8-5.142857-13.142858t-13.142857-5.142857h-182.857143q-8 0-13.142857 5.142857t-5.142857 13.142858v109.714285q0 8 5.142857 13.142857t13.142857 5.142858h182.857143q8 0 13.142857-5.142858t5.142857-13.142857z m-292.571428-438.857143V237.714286q0-8-5.142857-13.142857t-13.142858-5.142858H420.571429q-8 0-13.142858 5.142858t-5.142857 13.142857v109.714285q0 8 5.142857 13.142858t13.142858 5.142857h182.857142q8 0 13.142858-5.142857t5.142857-13.142858z m292.571428 219.428572V457.142857q0-8-5.142857-13.142857t-13.142857-5.142857h-182.857143q-8 0-13.142857 5.142857t-5.142857 13.142857v109.714286q0 8 5.142857 13.142857t13.142857 5.142857h182.857143q8 0 13.142857-5.142857t5.142857-13.142857z m0-219.428572V237.714286q0-8-5.142857-13.142857t-13.142857-5.142858h-182.857143q-8 0-13.142857 5.142858t-5.142857 13.142857v109.714285q0 8 5.142857 13.142858t13.142857 5.142857h182.857143q8 0 13.142857-5.142857t5.142857-13.142858z m73.142857-182.857142v621.714285q0 37.714286-26.857142 64.571429t-64.571429 26.857143H128q-37.714286 0-64.571429-26.857143T36.571429 786.285714V164.571429q0-37.714286 26.857142-64.571429t64.571429-26.857143h768q37.714286 0 64.571429 26.857143t26.857142 64.571429z" /></svg>