<?xml version="1.0" standalone="no"?><!DOCTYPE svg PUBLIC "-//W3C//DTD SVG 1.1//EN" "http://www.w3.org/Graphics/SVG/1.1/DTD/svg11.dtd"><svg t="1538745216233" class="icon" style="" viewBox="0 0 1024 1024" version="1.1" xmlns="http://www.w3.org/2000/svg" p-id="13554" xmlns:xlink="http://www.w3.org/1999/xlink" width="200" height="200"><defs><style type="text/css"></style></defs><path d="M116.181404 133.722146 116.181404 441.133425 201.417293 441.133425 201.417293 133.722146 317.598697 133.722146 317.598697 64 0 64 0 133.722146 116.181404 133.722146ZM412.356282 125.799174 412.356282 64 335.263948 64 335.263948 125.799174 412.356282 125.799174ZM335.263948 168.055021 335.263948 441.133425 412.356282 441.133425 412.356282 168.055021 335.263948 168.055021ZM550.003263 168.055021 550.003263 86.184319 472.91093 86.184319 472.91093 168.055021 426.221206 168.055021 426.221206 218.233837 472.91093 218.233837 472.91093 379.33425C472.91093 393.067469 475.263489 404.159517 479.968678 412.610729 484.673868 421.06194 491.098164 427.576318 499.241762 432.154058 507.385359 436.731797 516.795596 439.812922 527.472757 441.397524 538.149917 442.982126 549.4603 443.774415 561.404242 443.774415 569.004932 443.774415 576.786475 443.598351 584.749103 443.246218 592.711731 442.894084 599.950376 442.189827 606.465253 441.133425L606.465253 383.031637C602.845877 383.735905 599.045588 384.264097 595.064275 384.616231 591.082961 384.968365 586.92074 385.144429 582.577488 385.144429 569.547733 385.144429 560.86136 383.031658 556.518108 378.806052 552.174856 374.580447 550.003263 366.129362 550.003263 353.452545L550.003263 218.233837 606.465253 218.233837 606.465253 168.055021 550.003263 168.055021ZM624.673409 64 624.673409 441.133425 701.765741 441.133425 701.765741 64 624.673409 64ZM930.620557 275.279229 805.209786 275.279229C805.571725 269.997222 806.748006 264.011037 808.738662 257.320495 810.729318 250.629953 814.167674 244.291639 819.05383 238.305364 823.939994 232.31909 830.454771 227.301258 838.598368 223.25172 846.741965 219.20218 856.966547 217.177441 869.272429 217.177441 888.09319 217.177441 902.118061 222.107241 911.347469 231.966988 920.576883 241.826734 927.001178 256.264004 930.620557 275.279229L930.620557 275.279229ZM805.209786 322.817057 1007.71289 322.817057C1009.16064 301.689028 1007.350976 281.441637 1002.283853 262.074278 997.216723 242.706918 988.982765 225.45262 977.581728 210.310867 966.180691 195.169113 951.612922 183.10871 933.877978 174.129299 916.143034 165.149886 895.33193 160.660248 871.444045 160.660248 850.089722 160.660248 830.635866 164.357597 813.081888 171.752407 795.527917 179.147217 780.417248 189.270913 767.749427 202.123796 755.081613 214.97668 745.30944 230.206239 738.432627 247.81293 731.555808 265.41962 728.117453 284.434561 728.117453 304.858322 728.117453 325.986351 731.465325 345.35342 738.161171 362.96011 744.857018 380.566801 754.357741 395.708327 766.663622 408.385144 778.969498 421.061962 793.98969 430.833528 811.724634 437.700138 829.459578 444.566747 849.36585 448 871.444045 448 903.29456 448 930.439475 440.957429 952.87961 426.872077 975.319744 412.786724 991.968627 389.370177 1002.826752 356.621733L934.963782 356.621733C932.430221 365.072945 925.55351 373.083869 914.33344 380.654746 903.113376 388.225622 889.721882 392.011004 874.158566 392.011004 852.442304 392.011004 835.793421 386.553012 824.211418 375.636864 812.629414 364.720716 806.295597 347.114289 805.209786 322.817057ZM0 576 1024 576 1024 640 0 640 0 576ZM0 768 1024 768 1024 832 0 832 0 768ZM0 960 768 960 768 1024 0 1024 0 960Z" p-id="13555"></path></svg>