<?xml version="1.0" standalone="no"?><!DOCTYPE svg PUBLIC "-//W3C//DTD SVG 1.1//EN" "http://www.w3.org/Graphics/SVG/1.1/DTD/svg11.dtd"><svg t="1554472187522" class="icon" style="" viewBox="0 0 1024 1024" version="1.1" xmlns="http://www.w3.org/2000/svg" p-id="2600" xmlns:xlink="http://www.w3.org/1999/xlink" width="200" height="200"><defs><style type="text/css"></style></defs><path d="M275.0464 22.1184h58.368L506.0608 460.8H451.3792l-46.6944-122.88H203.1616L156.4672 460.8H102.4L275.0464 22.1184zM219.136 295.5264h169.5744l-82.944-219.3408h-2.4576L219.136 295.5264zM607.4368 534.1184h195.9936c40.5504 0 73.1136 9.8304 97.0752 29.4912 23.3472 19.6608 35.0208 46.6944 35.0208 81.1008 0 24.576-6.7584 46.08-19.6608 63.8976-13.5168 15.9744-31.3344 27.648-53.4528 35.0208 28.8768 4.9152 50.9952 17.2032 66.9696 35.6352 15.9744 18.432 24.576 41.7792 24.576 71.2704 0 43.008-15.36 74.9568-45.4656 95.8464-25.8048 17.2032-61.44 26.4192-106.2912 26.4192h-194.7648v-438.6816z m50.3808 42.3936v149.2992h133.3248c30.72 0 54.0672-6.7584 70.0416-19.0464 15.9744-12.9024 24.576-31.9488 24.576-57.1392 0-24.576-7.9872-43.008-23.9616-55.296-15.9744-12.288-39.3216-17.8176-70.0416-17.8176h-133.9392z m0 191.0784v162.816h140.0832c30.72 0 54.6816-6.144 73.1136-17.2032 21.504-13.5168 32.5632-35.0208 32.5632-63.2832 0-28.2624-9.8304-49.152-28.2624-62.6688-17.8176-13.5168-43.6224-19.6608-77.4144-19.6608h-140.0832z" fill="#000000" opacity=".8" p-id="2601"></path><path d="M896 380.672a25.6 25.6 0 1 1-51.2 0V332.8a204.8512 204.8512 0 0 0-204.8-204.8 25.6 25.6 0 1 1 0-51.2 256.0512 256.0512 0 0 1 256 256v47.872z" fill="#000000" opacity=".8" p-id="2602"></path><path d="M870.4 460.8l102.4-102.4h-204.8z" fill="#000000" opacity=".8" p-id="2603"></path><path d="M179.2 644.352a25.6 25.6 0 1 1 51.2 0v46.848a204.8512 204.8512 0 0 0 204.8 204.8 25.6 25.6 0 0 1 0 51.2 256.0512 256.0512 0 0 1-256-256v-46.848z" fill="#000000" opacity=".8" p-id="2604"></path><path d="M204.8 563.2l-102.4 102.4h204.8z" fill="#000000" opacity=".8" p-id="2605"></path></svg>