<?xml version="1.0" standalone="no"?><!DOCTYPE svg PUBLIC "-//W3C//DTD SVG 1.1//EN" "http://www.w3.org/Graphics/SVG/1.1/DTD/svg11.dtd"><svg t="1553741488697" class="icon" style="" viewBox="0 0 1024 1024" version="1.1" xmlns="http://www.w3.org/2000/svg" p-id="3823" xmlns:xlink="http://www.w3.org/1999/xlink" width="200" height="200"><defs><style type="text/css"></style></defs><path d="M614.912 768v-51.2H716.8a153.6 153.6 0 0 0 35.3792-303.104l-32.6656-7.68-5.9904-33.0752a204.8512 204.8512 0 0 0-403.0464 0l-5.9904 33.024-32.6656 7.68A153.6512 153.6512 0 0 0 307.2 716.8h103.3216v51.2H307.2a204.8 204.8 0 0 1-47.104-404.1728 256.1024 256.1024 0 0 1 503.808 0A204.9024 204.9024 0 0 1 716.8 768h-101.888z m0 0v-51.2H716.8a153.6 153.6 0 0 0 35.3792-303.104l-32.6656-7.68-5.9904-33.0752a204.8512 204.8512 0 0 0-403.0464 0l-5.9904 33.024-32.6656 7.68A153.6512 153.6512 0 0 0 307.2 716.8h103.3216v51.2H307.2a204.8 204.8 0 0 1-47.104-404.1728 256.1024 256.1024 0 0 1 503.808 0A204.9024 204.9024 0 0 1 716.8 768h-101.888z" fill="#000000" p-id="3824"></path><path d="M486.4 486.4h51.2v370.176h-51.2z" fill="#000000" p-id="3825"></path><path d="M376.5248 632.5248l-36.2496-36.2496L512 424.6016l171.7248 171.6736-36.2496 36.2496L512 496.9984z" fill="#000000" p-id="3826"></path></svg>