<svg xmlns="http://www.w3.org/2000/svg" viewBox="0 0 177.27 236.36"><defs><style>.a{fill:#fff;}.b{fill:#999faa;}.c{fill:#6e737a;}.d{fill:#c8ccd6;fill-rule:evenodd;}</style></defs><title>markdown-document</title><polygon class="a" points="121.87 3.69 3.69 3.69 3.69 232.67 173.58 232.67 173.58 55.4 121.87 3.69"/><rect class="b" x="48.64" y="125.18" width="106" height="7"/><rect class="b" x="48.64" y="113.18" width="69" height="7"/><rect class="b" x="48.64" y="101.18" width="106" height="7"/><circle class="c" cx="34.14" cy="104.68" r="3.5"/><circle class="c" cx="34.14" cy="117.68" r="3.5"/><circle class="c" cx="34.14" cy="128.68" r="3.5"/><rect class="b" x="22.64" y="84.18" width="132" height="7"/><rect class="b" x="22.64" y="72.18" width="132" height="7"/><path class="c" d="M178.06,234H77.94a8.45,8.45,0,0,1-8.44-8.44V170.44A8.45,8.45,0,0,1,77.94,162H178.06a8.45,8.45,0,0,1,8.44,8.44v55.12A8.45,8.45,0,0,1,178.06,234ZM77.94,167.63a2.81,2.81,0,0,0-2.81,2.81v55.12a2.82,2.82,0,0,0,2.81,2.82H178.06a2.83,2.83,0,0,0,2.82-2.82V170.44a2.82,2.82,0,0,0-2.82-2.81Z" transform="translate(-39.36 -10.82)"/><path class="c" d="M86.38,217.13V178.88H97.63l11.25,14.06,11.25-14.06h11.25v38.25H120.13V195.19l-11.25,14.06L97.63,195.19v21.94Z" transform="translate(-39.36 -10.82)"/><path class="c" d="M156.13,217.69,139.25,198H150.5V178.88h11.25V198H173Z" transform="translate(-39.36 -10.82)"/><rect class="b" x="48.64" y="41.18" width="33.81" height="7"/><rect class="b" x="48.64" y="29.18" width="56" height="7"/><rect class="c" x="66" y="48" width="19" height="3" transform="translate(-13.36 114.18) rotate(-90)"/><rect class="c" x="58" y="48" width="19" height="3" transform="translate(-21.36 106.18) rotate(-90)"/><rect class="c" x="22.64" y="41.18" width="19" height="3"/><rect class="c" x="22.64" y="33.18" width="19" height="3"/><path class="d" d="M216.61,66.18a3.56,3.56,0,0,0-1-2.42L163.7,11.87a3.57,3.57,0,0,0-2.39-1l-.07,0H39.36V247.18H216.64v-181ZM164.93,23.31l39.22,39.21H164.93Zm44.32,216.48H46.75V18.21h110.8v51.7h51.7Z" transform="translate(-39.36 -10.82)"/></svg>