<?xml version="1.0" standalone="no"?><!DOCTYPE svg PUBLIC "-//W3C//DTD SVG 1.1//EN" "http://www.w3.org/Graphics/SVG/1.1/DTD/svg11.dtd"><svg t="1523863913565" class="icon" style="" viewBox="0 0 1024 1024" version="1.1" xmlns="http://www.w3.org/2000/svg" p-id="11902" xmlns:xlink="http://www.w3.org/1999/xlink" width="128" height="128"><defs><style type="text/css"></style></defs><path d="M900.2 385.8v-192c0-22.1-17.9-40-40-40s-40 17.9-40 40v192c0 59.4-23.1 115.3-65.2 157.4-42 42-97.9 65.2-157.4 65.2H258.2l112.4-112.3c15.6-15.7 15.6-41 0-56.6-7.8-7.8-18-11.7-28.3-11.7s-20.5 3.9-28.3 11.7L135.5 618c-7.5 7.5-11.7 17.7-11.7 28.3s4.2 20.8 11.7 28.3l183.7 183.8c15.7 15.6 41 15.7 56.6 0s15.6-41 0-56.6L262.4 688.4h335.2c80.8 0 156.8-31.4 214-88.6s88.7-133.2 88.6-214z" p-id="11903" fill="#cdcdcd"></path></svg>