<?xml version="1.0" standalone="no"?><!DOCTYPE svg PUBLIC "-//W3C//DTD SVG 1.1//EN" "http://www.w3.org/Graphics/SVG/1.1/DTD/svg11.dtd"><svg t="1511622987879" class="icon" style="" viewBox="0 0 1024 1024" version="1.1" xmlns="http://www.w3.org/2000/svg" p-id="3561" xmlns:xlink="http://www.w3.org/1999/xlink" width="200" height="200"><defs><style type="text/css"></style></defs><path d="M851.968 80.41472 172.032 80.41472c-65.31072 0-118.25152 50.688-118.25152 113.2032l0 636.75392c0 62.52544 52.9408 113.21344 118.25152 113.21344l679.936 0c65.31072 0 118.26176-50.67776 118.26176-113.21344L970.22976 193.61792C970.22976 131.10272 917.27872 80.41472 851.968 80.41472zM911.104 533.90336 750.34624 374.2208l-258.38592 306.4832L317.83936 536.8832 112.90624 730.66496 112.90624 193.61792c0-31.25248 26.4704-56.59648 59.12576-56.59648l679.936 0c32.6656 0 59.12576 25.344 59.12576 56.59648L911.09376 533.90336zM275.88608 207.58528c-48.62976 0-88.05376 37.9392-88.05376 84.71552 0 46.80704 39.424 84.736 88.05376 84.736 48.61952 0 88.03328-37.92896 88.03328-84.736C363.9296 245.52448 324.5056 207.58528 275.88608 207.58528z" p-id="3562" fill="#2c2c2c"></path></svg>