<?xml version="1.0" standalone="no"?><!DOCTYPE svg PUBLIC "-//W3C//DTD SVG 1.1//EN" "http://www.w3.org/Graphics/SVG/1.1/DTD/svg11.dtd"><svg class="icon" width="200px" height="200.00px" viewBox="0 0 1024 1024" version="1.1" xmlns="http://www.w3.org/2000/svg"><path d="M963.2 796.8c0 22.4-12.8 70.4-73.6 70.4h-28.8V268.8c3.2-83.2-44.8-160-144-160H220.8v-16c0-51.2 28.8-80 76.8-80h512c96 0 156.8 76.8 156.8 166.4v617.6z"  /><path d="M806.4 940.8c0 22.4-12.8 70.4-73.6 70.4H147.2c-64 0-86.4-25.6-86.4-86.4V236.8c0-51.2 28.8-80 76.8-80h553.6c73.6 0 115.2 60.8 115.2 112v672z m-112-480c0-19.2-16-32-35.2-32H272c-19.2 0-35.2 16-35.2 32 0 19.2 16 32 35.2 32h387.2c19.2 0 35.2-16 35.2-32z m0 179.2c0-19.2-16-32-35.2-32H208c-19.2 0-35.2 16-35.2 32 0 19.2 16 32 35.2 32h451.2c19.2 0 35.2-12.8 35.2-32z m0 179.2c0-16-16-32-35.2-32H208c-19.2 0-35.2 12.8-35.2 32 0 16 16 32 35.2 32h451.2c19.2 0 35.2-12.8 35.2-32z"  /></svg>
