<?xml version="1.0" standalone="no"?><!DOCTYPE svg PUBLIC "-//W3C//DTD SVG 1.1//EN" "http://www.w3.org/Graphics/SVG/1.1/DTD/svg11.dtd"><svg t="1513057467027" class="icon" style="" viewBox="0 0 1024 1024" version="1.1" xmlns="http://www.w3.org/2000/svg" p-id="4935" xmlns:xlink="http://www.w3.org/1999/xlink" width="128" height="128"><defs><style type="text/css"></style></defs><path d="M622.077559 64.636113 838.133314 280.69289 622.077559 280.69289 622.077559 64.636113 622.077559 64.636113Z" p-id="4936" fill="#515151"></path><path d="M622.077559 64.636113" p-id="4937" fill="#515151"></path><path d="M588.762803 64.636113l0 244.373707 244.331751 0L833.094554 959.362864 183.387215 959.362864 183.387215 64.636113 588.762803 64.636113 588.762803 64.636113 588.762803 64.636113zM227.432361 426.853761l0 484.581534 561.615001 0L789.047362 426.849668 227.432361 426.853761 227.432361 426.853761 227.432361 426.853761zM327.00517 814.697043 327.00517 524.713556l72.495104 0 108.74061 108.748796L616.985588 524.713556l72.491011 0 0 289.983487-72.491011 0 0-187.398064L508.240885 736.039589 399.500275 627.298979l0 187.398064L327.00517 814.697043" p-id="4938" fill="#515151"></path><path d="M623.946117 582.828139" p-id="4939" fill="#515151"></path></svg>