<?xml version="1.0" standalone="no"?><!DOCTYPE svg PUBLIC "-//W3C//DTD SVG 1.1//EN" "http://www.w3.org/Graphics/SVG/1.1/DTD/svg11.dtd"><svg t="1642863021440" class="icon" viewBox="0 0 1024 1024" version="1.1" xmlns="http://www.w3.org/2000/svg" p-id="2159" xmlns:xlink="http://www.w3.org/1999/xlink" width="200" height="200"><defs><style type="text/css"></style></defs><path d="M42.666667 277.248A106.666667 106.666667 0 0 1 149.482667 170.666667h725.034666C933.44 170.666667 981.333333 218.496 981.333333 277.248v469.504A106.666667 106.666667 0 0 1 874.517333 853.333333H149.482667C90.56 853.333333 42.666667 805.504 42.666667 746.752V277.248z m85.333333 0v469.504c0 11.584 9.664 21.248 21.482667 21.248h725.034666A21.333333 21.333333 0 0 0 896 746.752V277.248c0-11.584-9.664-21.248-21.482667-21.248H149.482667A21.333333 21.333333 0 0 0 128 277.248zM384 682.666667a42.666667 42.666667 0 1 1 0-85.333334h256a42.666667 42.666667 0 1 1 0 85.333334H384z m-128 0a42.666667 42.666667 0 1 1 0-85.333334 42.666667 42.666667 0 0 1 0 85.333334z m192-128a42.666667 42.666667 0 1 1 0-85.333334 42.666667 42.666667 0 0 1 0 85.333334z m128 0a42.666667 42.666667 0 1 1 0-85.333334 42.666667 42.666667 0 0 1 0 85.333334z m128 0a42.666667 42.666667 0 1 1 0-85.333334 42.666667 42.666667 0 0 1 0 85.333334z m64 128a42.666667 42.666667 0 1 1 0-85.333334 42.666667 42.666667 0 0 1 0 85.333334z m-448-128a42.666667 42.666667 0 1 1 0-85.333334 42.666667 42.666667 0 0 1 0 85.333334z m64-128a42.666667 42.666667 0 1 1 0-85.333334 42.666667 42.666667 0 0 1 0 85.333334z m128 0a42.666667 42.666667 0 1 1 0-85.333334 42.666667 42.666667 0 0 1 0 85.333334z m128 0a42.666667 42.666667 0 1 1 0-85.333334 42.666667 42.666667 0 0 1 0 85.333334z m-384 0a42.666667 42.666667 0 1 1 0-85.333334 42.666667 42.666667 0 0 1 0 85.333334z m512 0a42.666667 42.666667 0 1 1 0-85.333334 42.666667 42.666667 0 0 1 0 85.333334z" p-id="2160"></path></svg>