<?xml version="1.0" standalone="no"?><!DOCTYPE svg PUBLIC "-//W3C//DTD SVG 1.1//EN" "http://www.w3.org/Graphics/SVG/1.1/DTD/svg11.dtd"><svg class="icon" width="200px" height="200.00px" viewBox="0 0 1024 1024" version="1.1" xmlns="http://www.w3.org/2000/svg"><path d="M179.42702 205.00814 102.678032 307.33876 164.076404 307.33876 164.076404 716.66124 102.678032 716.66124 179.42702 818.99186 256.173962 716.66124 194.77559 716.66124 194.77559 307.33876 256.173962 307.33876ZM102.678032 102.33062l818.644959 0 0 30.699186-818.644959 0 0-30.699186ZM102.678032 890.970194l818.644959 0 0 30.699186-818.644959 0 0-30.699186ZM683.91493 256.17345 531.800463 256.17345l-186.242751 511.653099 99.765191 0 50.167586-142.602835L716.785571 625.223714l50.16861 142.602835 103.202477 0L683.91493 256.17345zM526.202978 538.654057l67.264986-187.677427 25.296129 0 67.007113 187.677427L526.202978 538.654057z" /></svg>
