<?xml version="1.0" standalone="no"?><!DOCTYPE svg PUBLIC "-//W3C//DTD SVG 1.1//EN" "http://www.w3.org/Graphics/SVG/1.1/DTD/svg11.dtd"><svg class="icon" width="200px" height="200.00px" viewBox="0 0 1024 1024" version="1.1" xmlns="http://www.w3.org/2000/svg"><path d="M415.378286 558.756571h-214.857143C140.379429 558.756571 91.428571 509.677714 91.428571 449.371429V237.385143C91.428571 177.078857 140.379429 128 200.539429 128h214.857142c60.16 0 109.092571 49.078857 109.092572 109.385143v211.986286c0 60.306286-48.950857 109.385143-109.110857 109.385142zM200.539429 203.172571a34.194286 34.194286 0 0 0-34.102858 34.212572v211.986286a34.194286 34.194286 0 0 0 34.102858 34.194285h214.857142a34.194286 34.194286 0 0 0 34.121143-34.194285V237.385143a34.194286 34.194286 0 0 0-34.121143-34.212572h-214.857142zM415.378286 896h-214.857143C140.379429 896 91.428571 846.939429 91.428571 786.651429v-71.789715c0-60.342857 48.950857-109.385143 109.110858-109.385143h214.857142c60.16 0 109.092571 49.060571 109.092572 109.385143v71.789715c0 60.288-48.950857 109.348571-109.110857 109.348571zM200.539429 680.649143a34.194286 34.194286 0 0 0-34.102858 34.212571v71.789715a34.194286 34.194286 0 0 0 34.102858 34.194285h214.857142a34.194286 34.194286 0 0 0 34.121143-34.194285v-71.789715a34.212571 34.212571 0 0 0-34.121143-34.212571h-214.857142zM823.442286 896h-143.232c-60.141714 0-109.110857-49.060571-109.110857-109.348571V237.385143C571.099429 177.078857 620.068571 128 680.210286 128h143.232C883.620571 128 932.571429 177.078857 932.571429 237.385143V786.651429c0 60.288-48.950857 109.348571-109.129143 109.348571z m-143.232-692.827429a34.194286 34.194286 0 0 0-34.102857 34.212572V786.651429a34.194286 34.194286 0 0 0 34.102857 34.194285h143.232a34.194286 34.194286 0 0 0 34.121143-34.194285V237.385143a34.194286 34.194286 0 0 0-34.121143-34.212572h-143.232z" /></svg>
