<?xml version="1.0" standalone="no"?><!DOCTYPE svg PUBLIC "-//W3C//DTD SVG 1.1//EN" "http://www.w3.org/Graphics/SVG/1.1/DTD/svg11.dtd"><svg class="icon" width="200px" height="200.00px" viewBox="0 0 1024 1024" version="1.1" xmlns="http://www.w3.org/2000/svg"><path d="M873.984 610.816c-7.168-7.168-14.848-10.752-25.6-10.752s-18.432 3.584-25.6 10.752l-102.4 102.4c-14.848 14.848-14.848 36.352 0 51.2 14.848 14.848 36.352 14.848 51.2 0l40.448-40.448v226.816c0 18.432 14.848 36.352 36.352 36.352 22.016 0 36.352-14.848 36.352-36.352v-226.816l44.032 44.032c14.848 14.848 36.352 14.848 51.2 0 14.848-14.848 14.848-36.352 0-51.2l-105.984-105.984zM394.752 336.384c18.432-40.448 7.168-87.552-22.016-120.832-32.768-32.768-83.968-40.448-124.416-25.6-40.448 18.432-66.048 61.952-66.048 105.984 0 58.368 47.616 105.984 105.984 105.984 44.544 0.512 88.576-25.088 106.496-65.536zM256 296.448c0-10.752 3.584-18.432 10.752-25.6 3.584-10.752 14.848-14.848 25.6-14.848 18.432 0 36.352 14.848 36.352 32.768 0 18.432-14.848 36.352-32.768 40.448-21.504 0-39.936-14.848-39.936-32.768z m0 0"  /><path d="M950.784 36.352H73.216C32.768 36.352 0 69.632 0 109.568v731.648c0 40.448 32.768 73.216 73.216 73.216h585.216c19.968 0 36.352-16.384 36.352-36.352 0-19.968-16.384-36.352-36.352-36.352H109.568c-22.016 0-36.352-18.432-36.352-36.352V146.432c0-18.432 14.848-36.352 36.352-36.352h804.352c22.016 0 36.352 18.432 36.352 36.352v438.784c0 19.968 16.384 36.352 36.352 36.352 19.968 0 36.352-16.384 36.352-36.352V109.568c1.024-39.936-31.744-73.216-72.192-73.216z m0 0"  /><path d="M135.168 742.4c14.848 14.848 36.352 14.848 51.2 0l153.6-153.6 128 128c3.584 3.584 3.584 3.584 7.168 3.584 14.848 7.168 29.184 7.168 44.032-3.584l361.984-361.984c14.848-14.848 14.848-36.352 0-51.2-14.848-14.848-36.352-14.848-51.2 0L493.568 640l-128-131.584-3.584-3.584c-14.848-10.752-32.768-10.752-47.616 3.584L131.584 691.2c-10.752 14.848-10.752 36.352 3.584 51.2z m0 0"  /></svg>
