<?xml version="1.0" standalone="no"?><!DOCTYPE svg PUBLIC "-//W3C//DTD SVG 1.1//EN" "http://www.w3.org/Graphics/SVG/1.1/DTD/svg11.dtd"><svg class="icon" width="200px" height="200.00px" viewBox="0 0 1024 1024" version="1.1" xmlns="http://www.w3.org/2000/svg"><path d="M981.333333 255.2c-0.533333-70.133333-57.6-127.2-128-127.2H170.666667c-70.4 0-127.466667 56.8-128 127.2V768c0 70.666667 57.333333 128 128 128h682.666666c70.666667 0 128-57.333333 128-128V256.533333v-1.333333zM170.666667 213.333333h682.666666c16.8 0 31.2 9.6 38.133334 23.733334L512 502.666667 132.533333 237.066667c6.933333-14.133333 21.333333-23.733333 38.133334-23.733334z m682.666666 597.333334H170.666667c-23.466667 0-42.666667-19.2-42.666667-42.666667V337.866667l359.466667 251.733333c7.466667 5.066667 16 7.733333 24.533333 7.733333s17.066667-2.666667 24.533333-7.733333L896 337.866667V768c0 23.466667-19.2 42.666667-42.666667 42.666667z" /></svg>
