<?xml version="1.0" standalone="no"?><!DOCTYPE svg PUBLIC "-//W3C//DTD SVG 1.1//EN" "http://www.w3.org/Graphics/SVG/1.1/DTD/svg11.dtd"><svg class="icon" width="200px" height="200.00px" viewBox="0 0 1024 1024" version="1.1" xmlns="http://www.w3.org/2000/svg"><path d="M820.906667 913.066667c0 32.426667-25.6 58.026667-58.026667 58.026666H100.693333c-32.426667 0-58.026667-25.6-58.026666-58.026666V133.12c0-32.426667 25.6-58.026667 58.026666-58.026667h662.186667c32.426667 0 58.026667 25.6 58.026667 58.026667v779.946667z m-39.253334-740.693334c0-32.426667-25.6-58.026667-58.026666-58.026666H139.946667c-32.426667 0-58.026667 25.6-58.026667 58.026666v701.44c0 32.426667 25.6 58.026667 58.026667 58.026667h583.68c32.426667 0 58.026667-25.6 58.026666-58.026667V172.373333z m-97.28 76.8c0-10.24-8.533333-17.066667-17.066666-17.066666H215.04c-10.24 0-17.066667 8.533333-17.066667 17.066666v3.413334c0 10.24 8.533333 17.066667 17.066667 17.066666h452.266667c10.24 0 17.066667-8.533333 17.066666-17.066666v-3.413334z m0 136.533334c0-10.24-8.533333-17.066667-17.066666-17.066667H215.04c-10.24 0-17.066667 8.533333-17.066667 17.066667v3.413333c0 10.24 8.533333 17.066667 17.066667 17.066667h452.266667c10.24 0 17.066667-8.533333 17.066666-17.066667v-3.413333z m0 116.053333c0-10.24-8.533333-17.066667-17.066666-17.066667H215.04c-10.24 0-17.066667 8.533333-17.066667 17.066667v3.413333c0 10.24 8.533333 17.066667 17.066667 17.066667h452.266667c10.24 0 17.066667-8.533333 17.066666-17.066667v-3.413333z m-332.8 116.053333c0-10.24-8.533333-17.066667-17.066666-17.066666h-119.466667c-10.24 0-17.066667 8.533333-17.066667 17.066666v3.413334c0 10.24 8.533333 17.066667 17.066667 17.066666h119.466667c10.24 0 17.066667-8.533333 17.066666-17.066666v-3.413334zM882.346667 892.586667c-11.946667 0-22.186667-10.24-22.186667-22.186667V110.933333c0-11.946667 10.24-20.48 20.48-20.48 11.946667 0 22.186667 10.24 22.186667 20.48V870.4c0 11.946667-8.533333 22.186667-20.48 22.186667z"  /><path d="M882.346667 957.44L836.266667 878.933333h87.04zM493.226667 868.693333h-27.306667V651.946667h40.96L568.32 836.266667l59.733333-184.32h40.96v216.746666h-13.653333l-13.653333-17.066666V667.306667v17.066666l-59.733334 184.32h-27.306666L494.933333 684.373333v184.32z"  /></svg>
