<?xml version="1.0" standalone="no"?><!DOCTYPE svg PUBLIC "-//W3C//DTD SVG 1.1//EN" "http://www.w3.org/Graphics/SVG/1.1/DTD/svg11.dtd"><svg class="icon" width="200px" height="200.00px" viewBox="0 0 1024 1024" version="1.1" xmlns="http://www.w3.org/2000/svg"><path d="M985.6128 84.4288 42.3936 84.4288c-22.0544 0-39.9232 17.8688-39.9232 39.9488l0 728.5888c0 22.0416 17.8688 39.9232 39.9232 39.9232l943.2192 0c22.0288 0 39.9104-17.8816 39.9104-39.9232L1025.5232 124.3648C1025.5232 102.2976 1007.6416 84.4288 985.6128 84.4288zM962.5088 833.5872 64.7808 833.5872 64.7808 663.3216l228.992-229.5552 302.7584 302.7456L769.536 541.8752l192.9728 194.6496L962.5088 833.5872zM962.5088 640.0256l-187.136-191.296L596.5312 640.0256 293.7728 347.2384 64.7808 566.8352 64.7808 150.4128l897.7408 0L962.5216 640.0256zM762.88 326.464m-49.8944 0a3.898 3.898 0 1 0 99.7888 0 3.898 3.898 0 1 0-99.7888 0Z" /></svg>
