<?xml version="1.0" standalone="no"?><!DOCTYPE svg PUBLIC "-//W3C//DTD SVG 1.1//EN" "http://www.w3.org/Graphics/SVG/1.1/DTD/svg11.dtd"><svg class="icon" width="200px" height="200.00px" viewBox="0 0 1024 1024" version="1.1" xmlns="http://www.w3.org/2000/svg"><path d="M768.352529 965.280644 187.019441 965.280644c-53.431933 0-96.906074-43.474141-96.906074-96.907097L90.113367 222.426859c0-53.431933 43.474141-96.906074 96.906074-96.906074l452.16831 0c17.854647 0 32.29145 14.471596 32.29145 32.292474s-14.437827 32.293497-32.29145 32.293497l-452.16831 0c-17.790178 0-32.292474 14.500249-32.292474 32.287357l0 645.951805c0 17.819854 14.502295 32.287357 32.292474 32.287357l581.367881 0c17.819854 0 32.287357-14.46648 32.287357-32.287357L800.674679 351.620289c0-17.819854 14.437827-32.29145 32.292474-32.29145 17.85567 0 32.293497 14.471596 32.293497 32.29145l0 516.752234C865.259626 921.806503 821.785485 965.280644 768.352529 965.280644L768.352529 965.280644 768.352529 965.280644zM578.600861 448.52841c-8.280594 0-16.532535-3.1569-22.811542-9.476839-12.632715-12.632715-12.632715-33.029254 0-45.661969L876.761588 72.412217c12.632715-12.632715 33.034371-12.632715 45.667086 0 12.632715 12.633738 12.632715 33.031301 0 45.664016L601.451288 439.051571C595.167165 445.37151 586.886571 448.52841 578.600861 448.52841L578.600861 448.52841 578.600861 448.52841zM445.379697 448.52841 251.599272 448.52841c-17.819854 0-32.292474-14.471596-32.292474-32.293497 0-17.819854 14.471596-32.29145 32.292474-32.29145l193.779402 0c17.819854 0 32.292474 14.471596 32.292474 32.29145C477.671147 434.056813 463.199551 448.52841 445.379697 448.52841L445.379697 448.52841 445.379697 448.52841zM639.187751 642.306788 251.599272 642.306788c-17.819854 0-32.292474-14.436804-32.292474-32.292474s14.471596-32.292474 32.292474-32.292474l387.55778 0c17.850553 0 32.28838 14.436804 32.28838 32.292474C671.480224 627.869984 657.042397 642.306788 639.187751 642.306788L639.187751 642.306788 639.187751 642.306788zM639.187751 642.306788" /></svg>
