<?xml version="1.0" standalone="no"?><!DOCTYPE svg PUBLIC "-//W3C//DTD SVG 1.1//EN" "http://www.w3.org/Graphics/SVG/1.1/DTD/svg11.dtd"><svg t="1562220764993" class="icon" viewBox="0 0 1024 1024" version="1.1" xmlns="http://www.w3.org/2000/svg" p-id="8190" xmlns:xlink="http://www.w3.org/1999/xlink" width="200" height="200"><defs><style type="text/css"></style></defs><path d="M864.1024 557.1584c1.8944-14.7456 3.2768-29.4912 3.2768-45.1584 0-15.6672-1.3824-30.4128-3.2768-45.1584l99.9424-76.032a22.8352 22.8352 0 0 0 5.632-29.4912l-94.72-159.4368a24.1152 24.1152 0 0 0-28.8768-10.1376l-117.9648 46.08c-24.6272-18.432-51.2-33.6384-80.0256-45.1584l-18.0224-122.112A22.8864 22.8864 0 0 0 606.8736 51.2H417.3824a22.8864 22.8864 0 0 0-23.2448 19.3536l-17.9712 122.112a366.592 366.592 0 0 0-80.0768 45.1584l-117.9648-46.08a23.3984 23.3984 0 0 0-28.8768 10.1376l-94.72 159.4368a22.3232 22.3232 0 0 0 5.632 29.4912l99.9424 76.032a355.6352 355.6352 0 0 0-3.2768 45.1584c0 15.2064 1.3824 30.4128 3.2768 45.1584l-99.9424 76.032a22.8352 22.8352 0 0 0-5.632 29.4912l94.72 159.4368c5.632 10.1376 18.432 13.824 28.8768 10.1376l117.9648-46.08c24.6272 18.432 51.2 33.6384 80.0768 45.1584l17.9712 122.112a22.8864 22.8864 0 0 0 23.2448 19.3536h189.44a22.8864 22.8864 0 0 0 23.2448-19.3536l18.0224-122.112a366.592 366.592 0 0 0 80.0256-45.1584l117.9648 46.08c10.9056 4.1472 23.1936 0 28.8768-10.1376l94.72-159.4368a22.8352 22.8352 0 0 0-5.632-29.4912l-99.9424-76.032z m-352 116.1216c-91.4432 0-165.7856-72.3456-165.7856-161.28 0-88.9344 74.3424-161.28 165.7856-161.28S677.888 423.0656 677.888 512c0 88.9344-74.3424 161.28-165.7856 161.28z" p-id="8191"></path></svg>